<?xml version="1.0" encoding="UTF-8"?>
<svg version="1.1" xmlns="http://www.w3.org/2000/svg" width="1024" height="1024">
<path d="M0 0 C0.70479492 0.17160645 1.40958984 0.34321289 2.13574219 0.52001953 C7.17108915 1.78849167 12.09519962 3.29735203 17 5 C17.6408252 5.22075195 18.28165039 5.44150391 18.94189453 5.66894531 C48.23295234 16.16059246 73.76542189 40.06762596 87.28393555 67.94042969 C90.6317255 75.13437477 93.47271942 82.48153834 96 90 C96.31839844 90.94488281 96.63679687 91.88976562 96.96484375 92.86328125 C98.4037734 97.81004935 99.071993 102.54462983 99.33984375 107.6796875 C99.40010742 108.70634521 99.46037109 109.73300293 99.52246094 110.79077148 C99.63079945 112.85641517 99.70421782 114.92424566 99.73925781 116.99243164 C99.88287709 122.44788374 99.88287709 122.44788374 102.86572266 126.73095703 C105.04005315 128.09418125 105.04005315 128.09418125 107.29614258 129.09985352 C107.85841553 129.39690186 108.42068848 129.6939502 109 130 C109 130.66 109 131.32 109 132 C109.804375 132.3403125 109.804375 132.3403125 110.625 132.6875 C122.85823392 139.44797138 129.69435182 153.52456328 134.140625 166.26953125 C134.8585555 168.84211553 135.49011726 171.37894986 136 174 C136.18046875 174.86882812 136.3609375 175.73765625 136.546875 176.6328125 C139.39261513 197.77960556 136.86018385 221.2852564 123.671875 238.75976562 C120.67090601 242.41403544 117.4126425 245.73083196 114 249 C113.34773437 249.63679687 112.69546875 250.27359375 112.0234375 250.9296875 C108.09033128 254.53952471 102.55554412 259 97 259 C96.7525 259.845625 96.505 260.69125 96.25 261.5625 C95.28422181 264.21839003 94.36904969 266.18873034 92.9375 268.5625 C90.88134014 271.76725399 90.88134014 271.76725399 90.5 274.8125 C90.335 275.534375 90.17 276.25625 90 277 C88.68596724 277.70394612 87.3479743 278.36345658 86 279 C85.08978828 280.01104356 84.21691521 281.05641531 83.375 282.125 C82.59125 283.07375 81.8075 284.0225 81 285 C80.34 285 79.68 285 79 285 C79 285.66 79 286.32 79 287 C78.34 287 77.68 287 77 287 C77 287.66 77 288.32 77 289 C76.34 289 75.68 289 75 289 C75 289.66 75 290.32 75 291 C73.61401367 292.30932617 73.61401367 292.30932617 71.66796875 293.79296875 C70.60243774 294.60967041 70.60243774 294.60967041 69.51538086 295.44287109 C68.74718018 296.01859863 67.97897949 296.59432617 67.1875 297.1875 C66.40576416 297.77611816 65.62402832 298.36473633 64.81860352 298.97119141 C50.98448209 309.30573273 37.04640168 316.34068171 20.5625 321.375 C19.746604 321.62580322 18.93070801 321.87660645 18.09008789 322.13500977 C12.72115872 323.70388464 7.57351045 324.5201983 2 325 C2 327.64 2 330.28 2 333 C3.01578125 333.23074219 4.0315625 333.46148438 5.078125 333.69921875 C13.76476846 335.73235313 21.91153882 338.14497318 30 342 C30.79921875 342.37898438 31.5984375 342.75796875 32.421875 343.1484375 C44.99050403 349.60611241 52.71603925 359.29626666 57.23828125 372.51953125 C59.92840632 381.27968212 60.63901565 390.68697033 56.25 399.0078125 C51.87679279 405.97761149 47.01912501 410.50368836 39 413 C30.24460336 414.23835635 22.98667228 412.58519958 15 409 C14.71769531 409.77214844 14.43539062 410.54429687 14.14453125 411.33984375 C11.9352734 416.47467173 7.33718397 419.65417237 3 423 C3.31261665 426.12616647 3.6186731 427.62651933 5.8984375 429.859375 C7.12433594 430.79523438 7.12433594 430.79523438 8.375 431.75 C15.62483657 437.95968785 20.18626933 445.84764754 25 454 C25.54914062 454.91007812 26.09828125 455.82015625 26.6640625 456.7578125 C37.46552183 476.3064659 37.12897782 501.86174412 32 523 C30.83444646 526.7473173 29.53631878 530.38926094 28 534 C28.88300781 533.95359375 29.76601563 533.9071875 30.67578125 533.859375 C41.62810447 533.52998182 50.51272779 535.1953089 59.15234375 542.23828125 C66.61821039 549.35689828 71.01395129 556.51129248 71.4375 566.875 C71.21802591 573.83671808 69.85867409 579.84257104 65.09375 585.10546875 C58.98383441 590.63403043 54.69948096 592.29623746 46.41537476 592.40692139 C45.54602618 592.42577534 44.67667759 592.4446293 43.78098512 592.46405458 C40.8780123 592.52366309 37.97502814 592.56844993 35.07177734 592.61230469 C33.00111003 592.64982298 30.93044856 592.68766525 28.85979271 592.725811 C5.71794307 593.12826951 -17.42648036 593.182062 -40.57126188 593.20018864 C-44.20827212 593.20317412 -47.84527958 593.20728626 -51.48228836 593.21169281 C-62.93295468 593.22523001 -74.38361426 593.23497517 -85.834288 593.2388947 C-98.93344892 593.24340894 -112.03250725 593.26116862 -125.13163698 593.2898953 C-135.36542828 593.31154537 -145.59919065 593.32159997 -155.83300459 593.32293582 C-161.9037902 593.323977 -167.97447749 593.32974313 -174.04523849 593.34775543 C-179.72736038 593.36430519 -185.40931033 593.36635835 -191.09144783 593.35761642 C-193.1617447 593.35685106 -195.2320512 593.3611219 -197.3023243 593.37107468 C-218.25016993 593.46582508 -237.20581908 591.05668127 -255 579 C-255.68191406 578.26523437 -256.36382812 577.53046875 -257.06640625 576.7734375 C-258.82449716 574.81280345 -258.82449716 574.81280345 -261.09375 574.7578125 C-261.8878125 574.87898437 -262.681875 575.00015625 -263.5 575.125 C-264.94826172 575.310625 -264.94826172 575.310625 -266.42578125 575.5 C-267.60527344 575.665 -268.78476562 575.83 -270 576 C-307.28825072 580.68267221 -344.86081775 573.80907766 -375.6875 551.375 C-377.12577415 550.2509899 -378.56351736 549.12629875 -380 548 C-380.66 547.67 -381.32 547.34 -382 547 C-382 546.34 -382 545.68 -382 545 C-382.59006836 544.73372803 -383.18013672 544.46745605 -383.78808594 544.19311523 C-387.54016071 542.16923119 -390.26750112 539.06939106 -393.25 536.0625 C-393.91950684 535.39025391 -394.58901367 534.71800781 -395.27880859 534.02539062 C-400.49331042 528.70069651 -404.8592838 523.2016206 -409 517 C-409.81875243 515.89173644 -410.63778369 514.78367885 -411.45703125 513.67578125 C-414.07011303 510.02831351 -416.10220963 506.21582114 -418.0625 502.1875 C-418.40901611 501.48246338 -418.75553223 500.77742676 -419.11254883 500.05102539 C-445.54990207 445.7120771 -435.48178351 389.67419929 -417.18554688 334.58105469 C-408.57468684 308.57115046 -401.81610265 282.30278565 -399 255 C-399.91136719 255.51949219 -400.82273437 256.03898437 -401.76171875 256.57421875 C-422.8225691 268.1016809 -445.78723498 271.34000057 -469 265 C-485.61941249 260.05169892 -500.31259239 250.91766105 -512 238 C-512 237.34 -512 236.68 -512 236 C-512.66 236 -513.32 236 -514 236 C-515.69290807 233.82601374 -517.23515246 231.66963894 -518.75 229.375 C-519.19811035 228.69638916 -519.6462207 228.01777832 -520.10791016 227.31860352 C-526.92484776 216.71926188 -531.03738081 205.2275374 -534 193 C-534.17950195 192.32316162 -534.35900391 191.64632324 -534.54394531 190.94897461 C-536.32535746 183.45707653 -536.3039425 175.97575694 -536.26074219 168.32348633 C-536.25003659 166.07020051 -536.26068088 163.81771458 -536.2734375 161.56445312 C-536.29913564 139.60690186 -530.00935396 117.99672286 -519 99 C-518.4136377 97.98534668 -518.4136377 97.98534668 -517.81542969 96.95019531 C-512.57930452 88.01259961 -506.8583474 79.78929146 -500 72 C-499.20851563 71.07574219 -498.41703125 70.15148437 -497.6015625 69.19921875 C-472.19083437 40.22136948 -434.76277249 23.14946898 -397 18 C-396.36384766 17.89913086 -395.72769531 17.79826172 -395.07226562 17.69433594 C-353.23323405 11.13864109 -308.37521077 23.98200685 -274 48 C-270.92939623 50.24690212 -267.96907578 52.62090212 -265 55 C-264.00613281 55.78375 -263.01226562 56.5675 -261.98828125 57.375 C-260.98152344 58.179375 -259.97476562 58.98375 -258.9375 59.8125 C-257.99777344 60.56144531 -257.05804688 61.31039062 -256.08984375 62.08203125 C-255.40019531 62.71496094 -254.71054687 63.34789062 -254 64 C-254 64.66 -254 65.32 -254 66 C-253.34 66 -252.68 66 -252 66 C-238.28006182 78.87994196 -227.98003081 96.1399701 -219.97753906 112.95458984 C-219.34800893 114.27182347 -218.70996936 115.58504099 -218.06152344 116.89306641 C-210.27871907 132.62099031 -206.67584873 149.74506086 -204 167 C-203.52691406 165.97261719 -203.05382812 164.94523438 -202.56640625 163.88671875 C-196.0807062 150.15425007 -187.83585067 138.55723378 -175 130 C-176.48429254 125.34471884 -178.06467544 120.80096428 -180 116.3125 C-185.31560993 103.27805419 -186.18065802 89.33356727 -186.1875 75.4375 C-186.19974609 74.15552734 -186.21199219 72.87355469 -186.22460938 71.55273438 C-186.24325626 59.23957224 -184.80759924 47.45794527 -181.375 35.625 C-181.12137695 34.74086426 -180.86775391 33.85672852 -180.60644531 32.94580078 C-177.72051488 23.37257994 -173.55282807 14.32924211 -168 6 C-162.26572629 4.4936616 -157.7985754 5.3882938 -152.25 6.9375 C-151.02567261 7.26995728 -151.02567261 7.26995728 -149.77661133 7.60913086 C-139.57964171 10.51099287 -128.45281937 14.10324517 -119.76953125 20.30859375 C-117.17231239 22.23562027 -117.17231239 22.23562027 -114.41015625 21.94921875 C-111.70709016 20.88464005 -109.74297409 19.57964004 -107.4375 17.8125 C-78.08860934 -3.33596533 -34.48817461 -8.48544862 0 0 Z M-83 53 C-81.14945646 56.85692233 -79.00645505 60.54424314 -76.875 64.25 C-75.59625 66.4775 -74.3175 68.705 -73 71 C-57.16 70.01 -57.16 70.01 -41 69 C-39.35 64.38 -37.7 59.76 -36 55 C-32.3125 48.9375 -32.3125 48.9375 -30.55078125 46.40234375 C-29.00080685 44.00124991 -27.97019492 41.68117906 -27 39 C-47.2723543 38.30889701 -65.5960534 42.19089454 -83 53 Z M50 95 C48.58633942 101.62529336 48.58633942 101.62529336 50.8125 107.625 C52.85158663 109.17739052 52.85158663 109.17739052 55 109 C54.74412595 107.22694336 54.46972261 105.45655392 54.1875 103.6875 C53.96126953 102.20830078 53.96126953 102.20830078 53.73046875 100.69921875 C52.96563295 97.87300731 52.24741238 96.8040872 50 95 Z M-204 222 C-204.33868777 224.20751848 -204.67071689 226.41605911 -205 228.625 C-205.185625 229.85476563 -205.37125 231.08453125 -205.5625 232.3515625 C-205.95402516 235.6166027 -206.08080924 238.71712451 -206 242 C-205.67 242 -205.34 242 -205 242 C-204.80467039 243.7699868 -204.61901118 245.54104279 -204.4375 247.3125 C-204.33308594 248.29863281 -204.22867187 249.28476562 -204.12109375 250.30078125 C-204 253 -204 253 -205 256 C-205.66 256 -206.32 256 -207 256 C-207 253.36 -207 250.72 -207 248 C-208.7639536 250.64593039 -209.39690371 251.99519854 -210.11328125 254.95703125 C-210.30696289 255.73353027 -210.50064453 256.5100293 -210.70019531 257.31005859 C-210.90225586 258.13586426 -211.10431641 258.96166992 -211.3125 259.8125 C-213.15230893 267.10097386 -215.30802734 274.08754015 -217.984375 281.1171875 C-218.91134368 283.74835243 -219.53394403 286.25432242 -220 289 C-216.67993813 287.89331271 -215.9417403 287.05427405 -213.75 284.4375 C-210.66116439 280.7822681 -207.49896663 277.2098489 -204.28515625 273.6640625 C-202.79625467 272.08660942 -202.79625467 272.08660942 -203 270 C-201.515 269.505 -201.515 269.505 -200 269 C-198.50115001 267.36709137 -198.50115001 267.36709137 -197.1171875 265.32421875 C-196.58996094 264.57849609 -196.06273437 263.83277344 -195.51953125 263.06445312 C-194.70548828 261.88786133 -194.70548828 261.88786133 -193.875 260.6875 C-193.32457031 259.91470703 -192.77414062 259.14191406 -192.20703125 258.34570312 C-188.69118063 253.57497923 -188.69118063 253.57497923 -187 248 C-188.63973427 245.34092097 -188.63973427 245.34092097 -191 242.625 C-196.13537885 236.23080117 -199.5779745 229.43822906 -203 222 C-203.33 222 -203.66 222 -204 222 Z " fill="#0C0A08" transform="translate(672,234)"/>
<path d="M0 0 C1.32 0 2.64 0 4 0 C6 2.5625 6 2.5625 8 6 C8.34812744 6.59216309 8.69625488 7.18432617 9.05493164 7.79443359 C12.09551664 13.01845905 15.08356492 18.25069475 17 24 C17.87470947 23.85925049 18.74941895 23.71850098 19.65063477 23.57348633 C29.01690879 22.18182398 38.16862138 21.65719453 47.63354492 21.68432617 C49.93260935 21.68749326 52.23038922 21.66388081 54.52929688 21.63867188 C86.25998456 21.5042521 116.10141601 34.54683057 140 55 C140.54172852 55.46196777 141.08345703 55.92393555 141.64160156 56.39990234 C148.53984342 62.34572833 154.58730254 68.64428293 160 76 C160.72123047 76.95712891 160.72123047 76.95712891 161.45703125 77.93359375 C164.29287315 81.78040044 166.70889886 85.80777238 169 90 C169.48726562 90.87140625 169.97453125 91.7428125 170.4765625 92.640625 C178 106.20504926 178 106.20504926 178 112 C178.66 112 179.32 112 180 112 C185.76374704 126.58022967 188.66367189 140.26851816 188 156 C186.9378125 156.04898438 185.875625 156.09796875 184.78125 156.1484375 C174.25498713 156.68360215 174.25498713 156.68360215 164 159 C162.94709845 164.07732523 163.26215366 168.14050498 166.015625 172.5703125 C170.16169908 178.60981895 174.73789185 183.90763728 180 189 C177.79686925 195.60939226 174.59934683 200.44225742 168.5 203.9375 C162.42849528 206.66514615 156.54171253 207.04567016 150 206 C145.54227149 204.24414231 142.64196242 201.7045929 139.4375 198.1875 C137.0814485 195.65094647 137.0814485 195.65094647 133.3125 195.5625 C129.92642608 195.66795289 129.92642608 195.66795289 128 198 C127.2444568 200.7412565 127.2444568 200.7412565 128 204 C134.48064636 213.46611266 142.17189079 217.37277169 153 220 C152.62194429 222.3708155 152.38387932 223.65938018 150.55712891 225.28027344 C149.95304199 225.63637695 149.34895508 225.99248047 148.7265625 226.359375 C148.0665625 226.75253906 147.4065625 227.14570312 146.7265625 227.55078125 C146.03304688 227.94652344 145.33953125 228.34226562 144.625 228.75 C143.93921875 229.16121094 143.2534375 229.57242188 142.546875 229.99609375 C137.41728094 233 137.41728094 233 134 233 C134 233.66 134 234.32 134 235 C133.42032471 235.20157715 132.84064941 235.4031543 132.2434082 235.61083984 C129.5993569 236.53103841 126.9559246 237.45300277 124.3125 238.375 C123.40048828 238.69210937 122.48847656 239.00921875 121.54882812 239.3359375 C120.66259766 239.6453125 119.77636719 239.9546875 118.86328125 240.2734375 C118.05157471 240.55622559 117.23986816 240.83901367 116.40356445 241.13037109 C114.73111477 241.73547681 113.07266319 242.38012098 111.42700195 243.0546875 C92.62668036 250.37737588 62.05313407 250.35104469 43 244 C39.45262825 243.74200933 36.8466293 243.63095646 33.5625 245.0625 C31.67590939 247.04419417 31.67590939 247.04419417 31.625 250.5 C31.73859137 254.10936483 31.73859137 254.10936483 34 257 C35.85965693 257.76080431 35.85965693 257.76080431 38.03515625 258.1328125 C38.84533203 258.29910156 39.65550781 258.46539063 40.49023438 258.63671875 C41.33908203 258.79785156 42.18792969 258.95898438 43.0625 259.125 C43.88427734 259.29386719 44.70605469 259.46273438 45.55273438 259.63671875 C55.0333291 261.53134586 64.41315342 262.19075661 74.0625 262.5625 C77.671875 262.706875 81.28125 262.85125 85 263 C85 272.57 85 282.14 85 292 C82.69 291.401875 80.38 290.80375 78 290.1875 C72.46432658 288.78159667 66.93778351 287.56846026 61.3125 286.5625 C51.44513592 284.79168691 41.73240002 282.3919332 32 280 C32 279.34 32 278.68 32 278 C31.29875 277.896875 30.5975 277.79375 29.875 277.6875 C25.99676686 276.76009642 22.28839002 275.47711194 19.61328125 272.41015625 C17.44592179 270.51568466 16.14350484 270.68941283 13.3125 270.8125 C12.50425781 270.83957031 11.69601562 270.86664062 10.86328125 270.89453125 C9.94095703 270.94673828 9.94095703 270.94673828 9 271 C9 271.66 9 272.32 9 273 C8.34 273.33 7.68 273.66 7 274 C6.7233546 279.34431439 6.7233546 279.34431439 9 284 C11.47130918 285.15521502 11.47130918 285.15521502 14 286 C14.66 286.66 15.32 287.32 16 288 C17.96488831 288.88778692 17.96488831 288.88778692 20.125 289.625 C21.21167969 290.01558594 21.21167969 290.01558594 22.3203125 290.4140625 C22.87460937 290.60742188 23.42890625 290.80078125 24 291 C24 291.66 24 292.32 24 293 C24.99128906 293.28101563 25.98257813 293.56203125 27.00390625 293.8515625 C29.6039777 294.59257961 32.19011179 295.36183337 34.77734375 296.1484375 C43.5783253 298.77170467 52.29789556 300.65199261 61.375 302.0625 C75.68511655 304.34189873 88.15812182 306.80953901 97.5390625 319 C100.95377381 324.69937428 101.66358624 330.48055627 101 337 C99.37599816 340.63467079 98.33886956 341.77408696 95 344 C89.41586632 344.83329127 83.68029369 344.3290792 79 341 C77.37353273 339.3128848 75.77147309 337.60207346 74.1875 335.875 C70.67418077 332.16199903 68.52437768 330.34113886 63.375 329.875 C61.91607846 329.87051101 60.45512598 329.89473557 59 330 C59 330.66 59 331.32 59 332 C11.06377024 348.29515401 11.06377024 348.29515401 -8.81445312 339.68945312 C-11.64903984 338.26772611 -14.33275574 336.71540415 -17 335 C-18.04800781 334.34644531 -19.09601563 333.69289063 -20.17578125 333.01953125 C-27.06548289 328.09287046 -31.00027425 320.57166455 -34.8359375 313.1875 C-35.81869752 311.08395295 -35.81869752 311.08395295 -37 310 C-40.33618231 309.85742811 -43.65975606 309.95771843 -47 310 C-47 314.29 -47 318.58 -47 323 C-46.34 323 -45.68 323 -45 323 C-44.75507812 323.59425781 -44.51015625 324.18851563 -44.2578125 324.80078125 C-38.05671928 338.55010174 -28.03637939 346.75425501 -14.37109375 352.53515625 C2.62160168 358.81931148 28.30297136 359.32533939 45 352 C47.20260361 351.0901699 49.41146866 350.19541137 51.625 349.3125 C52.68976563 348.87550781 53.75453125 348.43851563 54.8515625 347.98828125 C58.20076491 346.93698074 60.51968884 346.53469237 64 347 C66.16796875 348.64453125 66.16796875 348.64453125 68.1875 350.8125 C72.44319814 354.91594999 76.0824193 356.32561849 81.8125 357.52734375 C84 358 84 358 85 359 C85.10578129 361.56280927 85.14678018 364.0988016 85.14526367 366.66235352 C85.15030159 367.86760178 85.15030159 367.86760178 85.15544128 369.09719849 C85.16499613 371.77444988 85.1668979 374.45163882 85.16796875 377.12890625 C85.17118267 378.99486822 85.17454684 380.86082994 85.17805481 382.72679138 C85.18406047 386.65535056 85.18589369 390.58388772 85.18530273 394.51245117 C85.18520205 399.50497344 85.19874994 404.49735048 85.21607494 409.4898386 C85.22730316 413.35504275 85.22921851 417.22021328 85.22869301 421.08543205 C85.22986092 422.92270334 85.23421451 424.75997585 85.24202538 426.59723091 C85.30304099 442.45822619 85.15135183 457.48973731 78 472 C77.45988281 473.16660156 76.91976563 474.33320312 76.36328125 475.53515625 C71.49872754 485.87838419 65.95258232 493.8744753 57 501 C55.43618083 499.43618083 55.61932767 497.59849058 55.3125 495.4375 C54.11449155 489.23447849 51.34197104 484.54050287 46.2734375 480.6875 C44.85903175 479.77584511 43.43078638 478.8857249 42 478 C42 477.34 42 476.68 42 476 C41.44183594 475.87625 40.88367188 475.7525 40.30859375 475.625 C37.78771828 474.94252948 35.47933131 473.98853852 33.0625 473 C26.77462399 470.65479219 20.66500381 470.21192381 14 470 C13.86615097 465.63773836 14.37192478 462.98194862 16.20581055 459.015625 C19.40851394 450.88727604 19.3568973 441.79106246 19.3125 433.1875 C19.30686035 432.04112061 19.3012207 430.89474121 19.29541016 429.71362305 C19.05033918 412.61810273 14.45589855 394.91190984 4 381 C3.01 380.34 2.02 379.68 1 379 C-0.01251482 377.34090642 -1.01129123 375.6733896 -2 374 C-10.86242772 363.71589117 -21.70357196 356.54033975 -34 351 C-34.68578125 350.68160156 -35.3715625 350.36320312 -36.078125 350.03515625 C-46.50074061 345.63400974 -58.29370694 345.64953645 -69.43286133 345.68432617 C-71.59179701 345.68754366 -73.74943005 345.66371452 -75.90820312 345.63867188 C-77.29426913 345.63640345 -78.68033877 345.63569325 -80.06640625 345.63671875 C-81.30334229 345.63373779 -82.54027832 345.63075684 -83.81469727 345.62768555 C-87.21887982 346.02558379 -88.61042252 346.58970048 -91 349 C-91.6921369 351.26300895 -91.6921369 351.26300895 -91.75 353.6875 C-91.83507812 354.89986328 -91.83507812 354.89986328 -91.921875 356.13671875 C-91.94765625 356.75160156 -91.9734375 357.36648438 -92 358 C-88.3290895 360.3346761 -85.24269363 360.20409851 -80.9609375 360.125 C-80.28004059 360.11742676 -79.59914368 360.10985352 -78.89761353 360.10205078 C-76.000281 360.06959556 -73.10352612 360.01377982 -70.20654297 359.95898438 C-52.71827966 359.6568457 -40.21570592 363.32184073 -25 372 C-25 372.66 -25 373.32 -25 374 C-24.43539062 374.25136719 -23.87078125 374.50273438 -23.2890625 374.76171875 C-20.66571182 376.18083507 -18.61952838 377.84947601 -16.375 379.8125 C-15.59898437 380.47894531 -14.82296875 381.14539063 -14.0234375 381.83203125 C-11.87742259 384.13133294 -10.96382386 386.03080068 -10 389 C-9.34 389 -8.68 389 -8 389 C-2.23770411 396.7379402 2.85450432 406.17320036 2 416 C2.66 416 3.32 416 4 416 C7.81844806 429.20987015 5.67617768 445.34881384 1 458 C0.4899796 459.78884003 -0.01079712 461.58035519 -0.5 463.375 C-1.44289067 466.55269784 -2.61848263 469.33217823 -4.1875 472.25 C-5.97644666 475.64968408 -6.53095016 478.1063655 -6 482 C-5.36455853 483.34849411 -4.70238631 484.68513282 -4 486 C-3.22922119 485.98952637 -2.45844238 485.97905273 -1.66430664 485.96826172 C1.86959498 485.92637137 5.4034441 485.9005694 8.9375 485.875 C10.14986328 485.85824219 11.36222656 485.84148437 12.61132812 485.82421875 C30.53060824 485.72709528 30.53060824 485.72709528 36.4375 491.4375 C37.07558594 492.03433594 37.71367188 492.63117188 38.37109375 493.24609375 C41.34215013 496.44514487 42.32664332 498.58419435 42.4375 502.875 C42.47746094 503.71804688 42.51742187 504.56109375 42.55859375 505.4296875 C41.74560111 509.17059067 39.90852639 510.57943855 37 513 C34.04558277 513.62641239 34.04558277 513.62641239 30.71138 513.62818909 C28.80904099 513.64717003 28.80904099 513.64717003 26.86827087 513.66653442 C25.46987506 513.65521821 24.07148332 513.64339073 22.6730957 513.63110352 C21.1941848 513.63624437 19.71528002 513.64352691 18.23638916 513.65278625 C14.22091144 513.67130882 10.20609752 513.65834827 6.19064736 513.63869596 C1.97232087 513.62227513 -2.24596465 513.63112897 -6.46430969 513.63621521 C-13.56200698 513.6407388 -20.65944105 513.62486597 -27.75708008 513.59692383 C-35.92023785 513.56503106 -44.08291671 513.56482417 -52.24610776 513.5821386 C-60.13181689 513.59811817 -68.01735338 513.59118699 -75.90305519 513.57420158 C-79.24032093 513.56739365 -82.57744565 513.56829877 -85.91470909 513.57574654 C-126.08351287 513.64629626 -126.08351287 513.64629626 -138 507 C-138 506.34 -138 505.68 -138 505 C-138.99 504.938125 -138.99 504.938125 -140 504.875 C-149.99947295 501.95848706 -158.5723048 491.48077375 -164 483 C-164 482.34 -164 481.68 -164 481 C-164.66 481 -165.32 481 -166 481 C-172.04683825 469.85484714 -176.55637842 459.18549351 -179.51757812 446.84814453 C-180.01623941 444.81724178 -180.01623941 444.81724178 -181.02734375 442.1953125 C-189.30004914 415.01831246 -186.26875252 381.42850574 -181 354 C-180.82919922 353.09991211 -180.65839844 352.19982422 -180.48242188 351.27246094 C-178.7275812 342.24707451 -176.52849565 333.52094162 -173 325 C-172.34 325 -171.68 325 -171 325 C-170.86851562 324.26652344 -170.73703125 323.53304688 -170.6015625 322.77734375 C-166.64794486 304.52395322 -154.06461092 285.97098285 -142 272 C-141.34 271.67 -140.68 271.34 -140 271 C-139.67 270.01 -139.34 269.02 -139 268 C-138.34 268 -137.68 268 -137 268 C-137 267.34 -137 266.68 -137 266 C-136.34 266 -135.68 266 -135 266 C-134.74114014 265.41968018 -134.48228027 264.83936035 -134.21557617 264.24145508 C-132.90438714 261.82369519 -131.44448168 260.12712511 -129.55078125 258.13671875 C-128.86693359 257.41419922 -128.18308594 256.69167969 -127.47851562 255.94726562 C-126.76373047 255.20154297 -126.04894531 254.45582031 -125.3125 253.6875 C-124.61705078 252.95337891 -123.92160156 252.21925781 -123.20507812 251.46289062 C-119.38289423 247.44085397 -115.51082618 243.47806935 -111.55639648 239.5859375 C-109.26415459 237.25018795 -107.14705108 234.774832 -105.015625 232.29296875 C-103.0354134 230.04028618 -100.99455048 227.85253583 -98.94213867 225.66577148 C-94.23431906 220.63596793 -90.08134944 215.58371209 -86.33984375 209.765625 C-85.89769531 209.18296875 -85.45554687 208.6003125 -85 208 C-84.34 208 -83.68 208 -83 208 C-83 207.34 -83 206.68 -83 206 C-82.34 206 -81.68 206 -81 206 C-80.62875 204.63875 -80.62875 204.63875 -80.25 203.25 C-78.94186954 199.8488608 -77.92458065 198.15042695 -75 196 C-73.171875 196.3125 -73.171875 196.3125 -71 197 C-70.21882813 197.22558594 -69.43765625 197.45117188 -68.6328125 197.68359375 C-67.80523437 197.93238281 -66.97765625 198.18117188 -66.125 198.4375 C-65.30257812 198.68371094 -64.48015625 198.92992187 -63.6328125 199.18359375 C-61 200 -61 200 -58.3125 201.08203125 C-53.79349223 202.33435062 -49.54194329 202.29662364 -44.875 202.25 C-43.9466333 202.24613281 -43.0182666 202.24226562 -42.06176758 202.23828125 C-35.20104446 202.15214086 -28.70000138 201.55362351 -22 200 C-22 199.34 -22 198.68 -22 198 C-20.3970947 197.18501438 -18.79262722 196.37310073 -17.1875 195.5625 C-15.84751953 194.88380859 -15.84751953 194.88380859 -14.48046875 194.19140625 C-12 193 -12 193 -9 192 C-9 191.34 -9 190.68 -9 190 C-8.21625 189.7525 -7.4325 189.505 -6.625 189.25 C-3.91522257 188.29058874 -3.91522257 188.29058874 -3.109375 186.2109375 C-1.7058269 183.41372544 0.18654705 181.60707659 2.375 179.375 C6.80996584 174.54913172 8.95510211 170.14518033 11 164 C11.515625 162.906875 12.03125 161.81375 12.5625 160.6875 C16.50581504 150.57203967 17.55455003 140.47333298 17.5 129.6875 C17.49645508 128.41946533 17.49291016 127.15143066 17.48925781 125.8449707 C17.25824258 112.7700108 14.21250991 102.50464798 8 91 C8 90.34 8 89.68 8 89 C7.34 89 6.68 89 6 89 C4.88671875 87.4609375 4.88671875 87.4609375 3.6875 85.375 C0.73959735 80.4705248 -2.16965391 76.22023072 -7 73 C-7 72.34 -7 71.68 -7 71 C-8.32 70.67 -9.64 70.34 -11 70 C-11 69.34 -11 68.68 -11 68 C-11.721875 67.71125 -12.44375 67.4225 -13.1875 67.125 C-17.09375 65.5625 -17.09375 65.5625 -21 64 C-21 63.34 -21 62.68 -21 62 C-22.32 61.67 -23.64 61.34 -25 61 C-25.77281267 57.10731397 -26.01728743 53.86164332 -25 50 C-20.92445939 46.011305 -15.87314341 42 -10 42 C-10 41.34 -10 40.68 -10 40 C-7.69 38.68 -5.38 37.36 -3 36 C-3.02895782 28.38409377 -4.32304211 23.48576225 -8.8203125 17.2890625 C-10 15 -10 15 -9.89453125 12.4375 C-8.87212112 9.65154402 -7.74479132 8.36220083 -5.5625 6.375 C-3.28515887 4.2735704 -1.74495147 2.6174272 0 0 Z " fill="#EF8A3A" transform="translate(573,298)"/>
<path d="M0 0 C1.05574219 0.21785156 2.11148438 0.43570312 3.19921875 0.66015625 C24.42413321 5.34551131 24.42413321 5.34551131 33 9 C33 9.66 33 10.32 33 11 C33.99 11.1546875 33.99 11.1546875 35 11.3125 C38.83841009 12.19213564 42.33096691 13.56969896 46 15 C46 15.66 46 16.32 46 17 C46.71285156 17.27199219 47.42570313 17.54398437 48.16015625 17.82421875 C55.52745526 20.87450348 62.01588528 24.76389962 68 30 C68.99 30.33 69.98 30.66 71 31 C71.556875 31.70125 72.11375 32.4025 72.6875 33.125 C74.62952871 35.53941408 76.41741677 37.31770769 78.75 39.3125 C85.4668564 45.0805068 92.48081021 51.27971744 97 59 C97 59.99 97 60.98 97 62 C97.66 62 98.32 62 99 62 C100.26171875 63.765625 100.26171875 63.765625 101.6875 66.25 C103.35090836 69.13865061 105.00938923 72.01505586 106.7734375 74.84375 C110.70940551 81.23754956 113.50743642 87.54543224 115.859375 94.67578125 C116.94257839 98.01335557 116.94257839 98.01335557 118.4453125 101.14453125 C120.71620957 106.33690281 121.83464905 111.87641909 123.125 117.375 C123.38925781 118.46039063 123.65351563 119.54578125 123.92578125 120.6640625 C126.10586014 129.82703368 127.14689155 138.63786556 127.23828125 148.046875 C127.2480751 148.88812424 127.25786896 149.72937347 127.26795959 150.59611511 C127.50911316 176.73208919 126.84063796 202.14282226 117.73217773 226.98242188 C116.96106088 229.10730007 116.24120342 231.24457075 115.53125 233.390625 C113.91345104 238.27395195 112.24859419 243.13986154 110.5625 248 C110.13227539 249.25683594 110.13227539 249.25683594 109.69335938 250.5390625 C107.98683948 255.44958299 106.08062888 260.19337355 103.92602539 264.92382812 C102.1676471 268.86615583 100.73746805 272.9356605 99.24609375 276.984375 C98 280 98 280 96.51171875 282.47265625 C94.73538457 285.44239324 93.58002598 288.44575833 92.375 291.6875 C90.06278027 297.87443946 90.06278027 297.87443946 89 300 C88.34 300 87.68 300 87 300 C86.71125 300.5775 86.4225 301.155 86.125 301.75 C85.08333333 303.83333333 84.04166667 305.91666667 83 308 C82.34 308 81.68 308 81 308 C80.34 309.98 79.68 311.96 79 314 C78.34 314 77.68 314 77 314 C76.74863281 314.68191406 76.49726563 315.36382813 76.23828125 316.06640625 C75.0659778 318.84369298 73.70133323 321.43432586 72.23242188 324.06420898 C67.90940706 331.81432409 64.70847187 339.54904689 62 348 C61.34 348 60.68 348 60 348 C59.74605469 349.02738281 59.49210938 350.05476563 59.23046875 351.11328125 C58.88310009 352.51309223 58.53542199 353.91282645 58.1875 355.3125 C58.00590332 356.04364014 57.82430664 356.77478027 57.63720703 357.52807617 C56.60939739 361.64157466 55.53130432 365.73282118 54.375 369.8125 C53.17761544 374.1449721 52.2923631 378.46456139 51.56616211 382.89941406 C51.19563828 384.92858723 50.76265531 386.94757415 50.26147461 388.94848633 C47.54868509 400.25773422 47.5098463 411.44273766 47.55395508 423.0300293 C47.56240649 426.4002113 47.53371087 429.76865867 47.50195312 433.13867188 C47.42187999 457.68949796 51.55048382 479.54481039 61.3359375 502.01953125 C62 504 62 504 62 508 C62.66 508 63.32 508 64 508 C65.15143825 510.0804054 66.29624112 512.16401997 67.4375 514.25 C67.92573242 515.12978516 67.92573242 515.12978516 68.42382812 516.02734375 C70.02882617 518.9725979 71.4163488 521.67894245 72 525 C48.45443838 530.32021029 23.12534392 524.21399024 1 516 C1 515.34 1 514.68 1 514 C-0.216875 513.67 -1.43375 513.34 -2.6875 513 C-13.7340023 509.28309514 -22.76725939 502.04000086 -31 494 C-31.77085937 493.2678125 -32.54171875 492.535625 -33.3359375 491.78125 C-45.5866783 479.90681182 -57.86843951 464.51341031 -63 448 C-63.4097359 446.73033302 -63.81993269 445.46081473 -64.23046875 444.19140625 C-65.12243903 441.40518919 -65.98885024 438.61267657 -66.8359375 435.8125 C-67.50019582 433.63694256 -68.18160383 431.46605371 -68.9140625 429.3125 C-77.9274975 402.3632398 -75.0870818 367.39976678 -65.94140625 340.859375 C-64.54005145 336.60297786 -63.64159991 332.25458782 -62.7109375 327.875 C-62.02503886 325.10125606 -61.07411598 322.64273065 -60 320 C-59.3308408 317.75682665 -58.68668785 315.50610067 -58.0625 313.25 C-56.9644871 309.33604996 -55.85406798 305.45782631 -54.5 301.625 C-52.19734597 294.8912928 -50.67792325 287.91002164 -49 281 C-48.31679564 278.18642856 -47.63026251 275.37373423 -46.9375 272.5625 C-46.77072754 271.88501709 -46.60395508 271.20753418 -46.43212891 270.50952148 C-45.57986797 267.107629 -44.63779151 263.79455013 -43.4375 260.5 C-42.00100702 256.41816204 -41.17343027 252.24395271 -40.375 248 C-40.25181396 247.34708984 -40.12862793 246.69417969 -40.00170898 246.02148438 C-38.1964206 236.01067993 -37.81750409 226.23581071 -37.8125 216.0625 C-37.80025391 214.75603516 -37.78800781 213.44957031 -37.77539062 212.10351562 C-37.76434645 204.78859167 -38.23320887 198.09575339 -40 191 C-40.36931641 189.21335937 -40.36931641 189.21335937 -40.74609375 187.390625 C-41.97017649 181.83038476 -43.18763715 176.95511551 -46 172 C-46 171.34 -46 170.68 -46 170 C-46.66 170 -47.32 170 -48 170 C-48.86738869 168.55233735 -49.66726778 167.06411 -50.4375 165.5625 C-55.01722567 157.6213008 -62.1959799 152.5577555 -70 148 C-71.485 147.01 -71.485 147.01 -73 146 C-78.89707427 144.18354762 -84.22825444 143.68924139 -90.375 143.75 C-91.18066406 143.74226562 -91.98632812 143.73453125 -92.81640625 143.7265625 C-97.38569582 143.5489933 -97.38569582 143.5489933 -101 146 C-101.318384 148.1398632 -101.318384 148.1398632 -101.25 150.5 C-101.25515625 151.2940625 -101.2603125 152.088125 -101.265625 152.90625 C-101.18939909 155.21892751 -101.18939909 155.21892751 -99 157 C-96.81961108 157.22875262 -94.62846789 157.35950438 -92.4375 157.4375 C-86.39548883 157.77351298 -81.60653185 158.77672013 -76 161 C-76 161.66 -76 162.32 -76 163 C-75.12988281 163.1546875 -75.12988281 163.1546875 -74.2421875 163.3125 C-67.9058445 165.25535082 -62.75172395 171.76216256 -59.32421875 177.19921875 C-57.62436548 180.79448364 -56.55081146 184.40525927 -55.5625 188.25 C-55.3862207 188.93570068 -55.20994141 189.62140137 -55.02832031 190.32788086 C-54.14329443 194.1603423 -53.54263132 197.28856775 -55 201 C-60.44326054 206.19485778 -69.25438515 212 -77 212 C-77 212.66 -77 213.32 -77 214 C-93.63166651 217.51461632 -114.34275816 218.82862092 -130 211 C-130 210.34 -130 209.68 -130 209 C-130.86625 208.814375 -130.86625 208.814375 -131.75 208.625 C-134.02335767 207.99351176 -135.9253529 207.11141809 -138 206 C-138 205.34 -138 204.68 -138 204 C-138.87269531 203.78214844 -139.74539062 203.56429687 -140.64453125 203.33984375 C-144.53970281 201.78449585 -146.88682384 199.5668617 -149.6875 196.5625 C-150.15994141 196.07201172 -150.63238281 195.58152344 -151.11914062 195.07617188 C-152.4199247 193.72430511 -153.71037094 192.36251233 -155 191 C-155.5465625 190.49082031 -156.093125 189.98164063 -156.65625 189.45703125 C-159.91045139 185.92849311 -161.81964824 181.23400027 -164 177 C-164.52207031 176.02804687 -165.04414063 175.05609375 -165.58203125 174.0546875 C-177.72003368 150.02451561 -177.19668743 118.91875901 -169.02416992 93.70336914 C-165.45826984 83.22186205 -160.33004477 73.66166617 -155 64 C-154.34 64 -153.68 64 -153 64 C-152.89558594 63.42378906 -152.79117188 62.84757812 -152.68359375 62.25390625 C-151.89285527 59.64672852 -150.74420432 58.07149644 -149.0625 55.9375 C-147.27999554 53.6557191 -145.60913432 51.41370148 -144 49 C-143.34 49 -142.68 49 -142 49 C-141.79375 48.46890625 -141.5875 47.9378125 -141.375 47.390625 C-139.42038808 43.99226564 -136.77876283 41.48944072 -134 38.75 C-133.18015625 37.91855469 -133.18015625 37.91855469 -132.34375 37.0703125 C-128.2533867 33 -128.2533867 33 -126 33 C-126 32.34 -126 31.68 -126 31 C-125.01 30.67 -124.02 30.34 -123 30 C-122.319375 29.319375 -121.63875 28.63875 -120.9375 27.9375 C-120.298125 27.298125 -119.65875 26.65875 -119 26 C-118.34 26 -117.68 26 -117 26 C-117 25.34 -117 24.68 -117 24 C-114.73596633 22.43630741 -112.49368307 21.01399553 -110.125 19.625 C-109.09379028 19.01446777 -109.09379028 19.01446777 -108.04174805 18.39160156 C-103.62717306 15.82526473 -99.24199012 13.63163763 -94.43359375 11.88671875 C-91.69340744 10.8882881 -89.0479865 9.72856794 -86.375 8.5625 C-75.29976454 3.95019114 -63.94402801 0.39563371 -52 -1 C-51.0925 -1.11085938 -50.185 -1.22171875 -49.25 -1.3359375 C-33.09766241 -2.92539625 -15.9365913 -3.29369859 0 0 Z " fill="#D87026" transform="translate(326,269)"/>
<path d="M0 0 C1.31226563 0.02964844 2.62453125 0.05929687 3.9765625 0.08984375 C11.86951919 0.44861451 18.65357437 2.10717672 26 5 C26 5.66 26 6.32 26 7 C26.639375 7.0825 27.27875 7.165 27.9375 7.25 C33.90271336 8.71086858 39.98659366 11.44209873 45 15 C45 15.66 45 16.32 45 17 C45.86496094 17.19980469 46.72992188 17.39960938 47.62109375 17.60546875 C51.92507615 19.38179443 54.07384963 21.83795292 57.0625 25.3125 C58.07326433 26.45527196 59.08497209 27.59721022 60.09765625 28.73828125 C60.58097412 29.28991943 61.06429199 29.84155762 61.56225586 30.40991211 C62.92526575 31.91734689 64.37128331 33.3484919 65.8203125 34.7734375 C67.96471887 36.96396013 68.66745632 38.00710685 69 41 C69.66 41 70.32 41 71 41 C71.99 43.97 71.99 43.97 73 47 C73.66 47 74.32 47 75 47 C81.99790143 59.87911646 89 75.09183149 89 90 C89.66 90 90.32 90 91 90 C91.84549332 95.18061456 92.18511561 100.19624837 92.23828125 105.44140625 C92.24802979 106.23794617 92.25777832 107.03448608 92.26782227 107.85516357 C92.43386931 124.93517768 92.39146861 141.37101762 88 158 C87.77554199 158.87027832 87.55108398 159.74055664 87.31982422 160.63720703 C85.97628578 165.78884603 84.53555552 170.90245914 83 176 C82.34 176 81.68 176 81 176 C80.89042969 176.64066406 80.78085937 177.28132812 80.66796875 177.94140625 C79.82263103 182.55296405 78.87347796 186.66188525 76.86328125 190.9296875 C74.83381649 195.79672968 73.49639299 200.94872417 72 206 C71.34 206 70.68 206 70 206 C69.69255859 207.26457031 69.69255859 207.26457031 69.37890625 208.5546875 C68.97478516 210.19824219 68.97478516 210.19824219 68.5625 211.875 C68.29566406 212.96554687 68.02882813 214.05609375 67.75390625 215.1796875 C67 218 67 218 66 220 C65.34 220 64.68 220 64 220 C63.9175 220.78375 63.835 221.5675 63.75 222.375 C62.93226458 226.32738785 61.57468207 229.73005102 60.03125 233.4453125 C59.13025854 235.67731408 58.35180947 237.89458916 57.625 240.1875 C56.04212417 245.08479538 54.10396339 249.83553714 52.15673828 254.59643555 C50.62524633 258.35775997 49.24139602 262.1332593 48 266 C47.34 266 46.68 266 46 266 C45.88406494 266.58491211 45.76812988 267.16982422 45.64868164 267.77246094 C45.12097191 270.4318437 44.59175142 273.09092365 44.0625 275.75 C43.88009766 276.67039062 43.69769531 277.59078125 43.50976562 278.5390625 C43.24389648 279.87324219 43.24389648 279.87324219 42.97265625 281.234375 C42.81031494 282.05131836 42.64797363 282.86826172 42.48071289 283.70996094 C42.03730797 285.82227083 41.53920019 287.910337 41 290 C40.34 290 39.68 290 39 290 C38.86722656 291.25296875 38.73445312 292.5059375 38.59765625 293.796875 C38.41941709 295.44793246 38.2410236 297.09897327 38.0625 298.75 C37.93198242 299.9875 37.93198242 299.9875 37.79882812 301.25 C37.66831055 302.44882812 37.66831055 302.44882812 37.53515625 303.671875 C37.456604 304.4050293 37.37805176 305.13818359 37.29711914 305.89355469 C37 308 37 308 36.48583984 309.8203125 C30.63371602 336.07546902 37.65180629 365.630748 50.83666992 388.29614258 C51.96923606 390.07557586 51.96923606 390.07557586 53.6418457 391.6003418 C55 393 55 393 55 395 C55.66 395 56.32 395 57 395 C58.3440093 396.99284138 59.67541292 398.99419671 61 401 C63.47403625 403.66434673 65.9422563 405.95508824 68.8125 408.1875 C69.534375 408.785625 70.25625 409.38375 71 410 C71 410.66 71 411.32 71 412 C71.66 412 72.32 412 73 412 C73 412.66 73 413.32 73 414 C73.7425 414.2475 74.485 414.495 75.25 414.75 C78.27564999 416.12529545 79.66170421 417.66170421 82 420 C86.8223538 423.52158732 91.21610248 425.45762733 97 427 C98.96721848 427.79074468 100.92483178 428.6055928 102.875 429.4375 C107.8568589 431.55824094 112.83951333 433.36584589 118 435 C118 435.33 118 435.66 118 436 C114.0043727 436.41667622 110.00807393 436.72871115 106 437 C104.90171875 437.07992188 103.8034375 437.15984375 102.671875 437.2421875 C85.73164287 437.88789142 68.76076408 432.85115254 53 427 C53 426.34 53 425.68 53 425 C51.783125 424.67 50.56625 424.34 49.3125 424 C38.2659977 420.28309514 29.23274061 413.04000086 21 405 C19.84371094 403.90171875 19.84371094 403.90171875 18.6640625 402.78125 C6.4133217 390.90681182 -5.86843951 375.51341031 -11 359 C-11.4097359 357.73033302 -11.81993269 356.46081473 -12.23046875 355.19140625 C-13.12243903 352.40518919 -13.98885024 349.61267657 -14.8359375 346.8125 C-15.50019582 344.63694256 -16.18160383 342.46605371 -16.9140625 340.3125 C-25.9274975 313.3632398 -23.0870818 278.39976678 -13.94140625 251.859375 C-12.54005145 247.60297786 -11.64159991 243.25458782 -10.7109375 238.875 C-10.02503886 236.10125606 -9.07411598 233.64273065 -8 231 C-7.3308408 228.75682665 -6.68668785 226.50610067 -6.0625 224.25 C-4.9644871 220.33604996 -3.85406798 216.45782631 -2.5 212.625 C-0.19734597 205.8912928 1.32207675 198.91002164 3 192 C3.68320436 189.18642856 4.36973749 186.37373423 5.0625 183.5625 C5.22927246 182.88501709 5.39604492 182.20753418 5.56787109 181.50952148 C6.42013203 178.107629 7.36220849 174.79455013 8.5625 171.5 C9.99899298 167.41816204 10.82656973 163.24395271 11.625 159 C11.74818604 158.34708984 11.87137207 157.69417969 11.99829102 157.02148438 C13.8035794 147.01067993 14.18249591 137.23581071 14.1875 127.0625 C14.19974609 125.75603516 14.21199219 124.44957031 14.22460938 123.10351562 C14.23565355 115.78859167 13.76679113 109.09575339 12 102 C11.75378906 100.80890625 11.50757813 99.6178125 11.25390625 98.390625 C10.02982351 92.83038476 8.81236285 87.95511551 6 83 C6 82.34 6 81.68 6 81 C5.34 81 4.68 81 4 81 C3.13261131 79.55233735 2.33273222 78.06411 1.5625 76.5625 C-3.01722567 68.6213008 -10.1959799 63.5577555 -18 59 C-19.485 58.01 -19.485 58.01 -21 57 C-26.89707427 55.18354762 -32.22825444 54.68924139 -38.375 54.75 C-39.58349609 54.73839844 -39.58349609 54.73839844 -40.81640625 54.7265625 C-45.38569582 54.5489933 -45.38569582 54.5489933 -49 57 C-49.318384 59.1398632 -49.318384 59.1398632 -49.25 61.5 C-49.25515625 62.2940625 -49.2603125 63.088125 -49.265625 63.90625 C-49.18939909 66.21892751 -49.18939909 66.21892751 -47 68 C-44.81961108 68.22875262 -42.62846789 68.35950438 -40.4375 68.4375 C-34.39548883 68.77351298 -29.60653185 69.77672013 -24 72 C-24 72.66 -24 73.32 -24 74 C-23.41992188 74.103125 -22.83984375 74.20625 -22.2421875 74.3125 C-15.9058445 76.25535082 -10.75172395 82.76216256 -7.32421875 88.19921875 C-5.62436548 91.79448364 -4.55081146 95.40525927 -3.5625 99.25 C-3.3862207 99.93570068 -3.20994141 100.62140137 -3.02832031 101.32788086 C-2.14329443 105.1603423 -1.54263132 108.28856775 -3 112 C-8.44326054 117.19485778 -17.25438515 123 -25 123 C-25 123.66 -25 124.32 -25 125 C-41.63166651 128.51461632 -62.34275816 129.82862092 -78 122 C-78 121.34 -78 120.68 -78 120 C-78.598125 119.896875 -79.19625 119.79375 -79.8125 119.6875 C-83.20208968 118.62220039 -84.57977671 116.7381964 -86.31640625 113.6875 C-86.93322266 112.3571875 -86.93322266 112.3571875 -87.5625 111 C-87.97628906 110.13375 -88.39007813 109.2675 -88.81640625 108.375 C-91.89280542 99.60269346 -92.29714388 90.84662712 -92.1875 81.625 C-92.18685547 80.57183594 -92.18621094 79.51867187 -92.18554688 78.43359375 C-92.15911716 73.7995842 -92.02517271 69.53530271 -91 65 C-90.34 65 -89.68 65 -89 65 C-89.020625 63.906875 -89.04125 62.81375 -89.0625 61.6875 C-89 58 -89 58 -88 55 C-87.34 55 -86.68 55 -86 55 C-85.88785156 54.29488281 -85.77570313 53.58976562 -85.66015625 52.86328125 C-84.93685092 49.72610488 -83.80542309 47.09872094 -82.4375 44.1875 C-81.75494141 42.72376953 -81.75494141 42.72376953 -81.05859375 41.23046875 C-80.70925781 40.49441406 -80.35992187 39.75835937 -80 39 C-79.34 39 -78.68 39 -78 39 C-77.72671875 38.43023437 -77.4534375 37.86046875 -77.171875 37.2734375 C-73.77232778 30.67831589 -69.55166563 24.92079454 -64 20 C-63.34 20 -62.68 20 -62 20 C-62 19.34 -62 18.68 -62 18 C-61.0925 17.5875 -60.185 17.175 -59.25 16.75 C-55.98113176 15.20029249 -55.98113176 15.20029249 -53.875 12.8125 C-52 11 -52 11 -48 11 C-47.67 10.01 -47.34 9.02 -47 8 C-44.72191412 6.81732133 -42.57240102 5.84960474 -40.1875 4.9375 C-39.50389404 4.67437012 -38.82028809 4.41124023 -38.1159668 4.14013672 C-25.59188103 -0.50945387 -13.18550314 -0.34356974 0 0 Z " fill="#F08B3A" transform="translate(274,358)"/>
<path d="M0 0 C2.16796875 1.64453125 2.16796875 1.64453125 4.1875 3.8125 C8.44319814 7.91594999 12.0824193 9.32561849 17.8125 10.52734375 C20 11 20 11 21 12 C21.10578129 14.56280927 21.14678018 17.0988016 21.14526367 19.66235352 C21.14862228 20.46585236 21.1519809 21.2693512 21.15544128 22.09719849 C21.16499613 24.77444988 21.1668979 27.45163882 21.16796875 30.12890625 C21.17118267 31.99486822 21.17454684 33.86082994 21.17805481 35.72679138 C21.18406047 39.65535056 21.18589369 43.58388772 21.18530273 47.51245117 C21.18520205 52.50497344 21.19874994 57.49735048 21.21607494 62.4898386 C21.22730316 66.35504275 21.22921851 70.22021328 21.22869301 74.08543205 C21.22986092 75.92270334 21.23421451 77.75997585 21.24202538 79.59723091 C21.30304099 95.45822619 21.15135183 110.48973731 14 125 C13.45988281 126.16660156 12.91976562 127.33320312 12.36328125 128.53515625 C7.49872754 138.87838419 1.95258232 146.8744753 -7 154 C-8.56381917 152.43618083 -8.38067233 150.59849058 -8.6875 148.4375 C-9.88550845 142.23447849 -12.65802896 137.54050287 -17.7265625 133.6875 C-19.14096825 132.77584511 -20.56921362 131.8857249 -22 131 C-22 130.34 -22 129.68 -22 129 C-22.55816406 128.87625 -23.11632812 128.7525 -23.69140625 128.625 C-26.21228172 127.94252948 -28.52066869 126.98853852 -30.9375 126 C-37.22537601 123.65479219 -43.33499619 123.21192381 -50 123 C-50.13384903 118.63773836 -49.62807522 115.98194862 -47.79418945 112.015625 C-44.59148606 103.88727604 -44.6431027 94.79106246 -44.6875 86.1875 C-44.69313965 85.04112061 -44.6987793 83.89474121 -44.70458984 82.71362305 C-44.94192344 66.15784246 -49.07427041 51.02995874 -58.4375 37.3125 C-62.63925936 30.81015756 -62.5368715 26.40014156 -61 19 C-60.79953171 17.41825629 -60.61020814 15.83501501 -60.4375 14.25 C-60.293125 13.1775 -60.14875 12.105 -60 11 C-58.56333984 10.92652344 -58.56333984 10.92652344 -57.09765625 10.8515625 C-49.71482377 10.4486922 -42.35180902 9.91841387 -35 9.125 C-34.31945557 9.05877441 -33.63891113 8.99254883 -32.93774414 8.92431641 C-27.90201931 8.34778646 -23.6332636 6.93032961 -19 5 C-16.79206537 4.10318445 -14.58375694 3.20728839 -12.375 2.3125 C-11.31023438 1.87550781 -10.24546875 1.43851563 -9.1484375 0.98828125 C-5.79923509 -0.06301926 -3.48031116 -0.46530763 0 0 Z " fill="#FAD0CC" transform="translate(637,645)"/>
<path d="M0 0 C12.61088105 5.99159507 19.18567299 16.3118823 24.02734375 29.04296875 C26.81847596 41.10644331 27.32305715 55.91971443 20.6328125 66.640625 C20.10300781 67.43339844 19.57320312 68.22617187 19.02734375 69.04296875 C18.5478125 70.03683594 18.06828125 71.03070313 17.57421875 72.0546875 C16.02004396 75.05707062 14.34300425 77.28465188 12.08984375 79.79296875 C11.42082031 80.5509375 10.75179687 81.30890625 10.0625 82.08984375 C8.10506452 83.96838068 6.44721189 84.89313939 4.02734375 86.04296875 C3.69734375 86.70296875 3.36734375 87.36296875 3.02734375 88.04296875 C-4.86117057 90.67247352 -15.22137448 90.01299396 -22.7421875 86.5234375 C-26.89371182 83.76787232 -30.14891412 80.12871853 -32.97265625 76.04296875 C-32.97265625 75.38296875 -32.97265625 74.72296875 -32.97265625 74.04296875 C-33.63265625 74.04296875 -34.29265625 74.04296875 -34.97265625 74.04296875 C-35.23820312 73.42808594 -35.50375 72.81320312 -35.77734375 72.1796875 C-36.13054687 71.37144531 -36.48375 70.56320312 -36.84765625 69.73046875 C-37.19570313 68.92996094 -37.54375 68.12945312 -37.90234375 67.3046875 C-38.99837519 64.84678535 -38.99837519 64.84678535 -40.97265625 62.04296875 C-41.98777593 56.83159003 -42.16584704 51.70641648 -42.16015625 46.41796875 C-42.15935059 45.63252686 -42.15854492 44.84708496 -42.15771484 44.0378418 C-42.06179907 34.80453792 -40.83601355 25.83756618 -37.97265625 17.04296875 C-37.31265625 17.04296875 -36.65265625 17.04296875 -35.97265625 17.04296875 C-35.91078125 16.34171875 -35.84890625 15.64046875 -35.78515625 14.91796875 C-34.66485054 10.95381008 -32.81199099 9.02080762 -29.97265625 6.04296875 C-29.31265625 6.04296875 -28.65265625 6.04296875 -27.97265625 6.04296875 C-27.97265625 5.38296875 -27.97265625 4.72296875 -27.97265625 4.04296875 C-19.39452261 -1.60850753 -9.92188945 -3.19430081 0 0 Z " fill="#7AD0D4" transform="translate(520.97265625,384.95703125)"/>
<path d="M0 0 C2.91190065 0.94172106 5.79876339 1.27064637 8.8359375 1.59375 C8.8359375 2.25375 8.8359375 2.91375 8.8359375 3.59375 C10.4859375 3.92375 12.1359375 4.25375 13.8359375 4.59375 C13.8359375 5.25375 13.8359375 5.91375 13.8359375 6.59375 C17.1359375 7.58375 20.4359375 8.57375 23.8359375 9.59375 C23.8359375 10.25375 23.8359375 10.91375 23.8359375 11.59375 C24.55523438 11.84125 25.27453125 12.08875 26.015625 12.34375 C31.32928909 14.69883658 35.45885139 18.83372346 39.8359375 22.59375 C40.76277344 23.37234375 41.68960938 24.1509375 42.64453125 24.953125 C57.99229014 38.27628591 67.64748138 54.79020866 74.0859375 73.90625 C74.34431396 74.67114746 74.60269043 75.43604492 74.86889648 76.22412109 C77.10596844 83.0419352 77.98906214 89.27454752 77.8984375 96.46875 C77.89392578 97.15710938 77.88941406 97.84546875 77.88476562 98.5546875 C77.87310086 100.23441335 77.85517021 101.91409375 77.8359375 103.59375 C75.52349958 103.62060412 73.2109748 103.64007841 70.8984375 103.65625 C69.61066406 103.66785156 68.32289063 103.67945313 66.99609375 103.69140625 C63.8359375 103.59375 63.8359375 103.59375 62.8359375 102.59375 C62.75927579 100.93913486 62.68843749 99.28404488 62.64697266 97.62817383 C62.44637552 90.73645858 61.55820647 84.48523802 59.4609375 77.90625 C59.25178711 77.24810303 59.04263672 76.58995605 58.82714844 75.91186523 C57.55802702 72.15730031 55.94429151 68.93683067 53.8359375 65.59375 C53.2171875 64.0159375 53.2171875 64.0159375 52.5859375 62.40625 C50.44596486 57.29899572 47.14262797 53.00052621 43.8359375 48.59375 C43.15273438 47.67980469 42.46953125 46.76585937 41.765625 45.82421875 C36.48481428 39.05758852 30.6357105 33.79660662 23.8359375 28.59375 C23.02125 27.913125 22.2065625 27.2325 21.3671875 26.53125 C14.45469893 21.24020937 6.11102929 18.07627754 -2.1640625 15.59375 C-2.1640625 14.93375 -2.1640625 14.27375 -2.1640625 13.59375 C-3.8140625 13.59375 -5.4640625 13.59375 -7.1640625 13.59375 C-7.1640625 12.93375 -7.1640625 12.27375 -7.1640625 11.59375 C-7.9478125 11.47 -8.7315625 11.34625 -9.5390625 11.21875 C-11.41639699 10.89507164 -13.29494421 10.5616868 -15.14526367 10.10839844 C-23.07470699 8.23900184 -31.00110834 8.19919777 -39.1015625 8.21875 C-39.82928864 8.21829681 -40.55701477 8.21784363 -41.30679321 8.21737671 C-55.32059203 8.24300031 -68.48592409 9.19046446 -81.1640625 15.59375 C-82.1540625 15.59375 -83.1440625 15.59375 -84.1640625 15.59375 C-84.1640625 16.25375 -84.1640625 16.91375 -84.1640625 17.59375 C-85.4840625 17.59375 -86.8040625 17.59375 -88.1640625 17.59375 C-88.1640625 18.25375 -88.1640625 18.91375 -88.1640625 19.59375 C-89.0921875 19.944375 -90.0203125 20.295 -90.9765625 20.65625 C-100.77993827 24.93908751 -115.16689257 33.59941014 -120.1640625 43.59375 C-120.8240625 43.59375 -121.4840625 43.59375 -122.1640625 43.59375 C-122.40769531 44.12484375 -122.65132812 44.6559375 -122.90234375 45.203125 C-124.17945656 47.6229177 -125.64980736 49.84751922 -127.18505859 52.10961914 C-138.21188 68.50215 -143.16535246 84.81929123 -144.1640625 104.59375 C-149.1140625 104.59375 -154.0640625 104.59375 -159.1640625 104.59375 C-158.47838848 90.33173029 -157.58050781 76.94424613 -150.5703125 64.1953125 C-149.35993796 61.95611959 -148.46855432 59.87264819 -147.6640625 57.46875 C-139.52610826 34.70129419 -116.49743956 15.62854122 -95.29931641 5.31298828 C-65.50986002 -8.52894275 -31.1079411 -11.31197858 0 0 Z " fill="#F1CC43" transform="translate(679.1640625,251.40625)"/>
<path d="M0 0 C2.25 0.9375 2.25 0.9375 4 3 C4.79027764 5.23137216 5.43934513 7.44512568 5.99609375 9.74609375 C8.18946598 14.67051313 13.32264318 16.81419349 17.875 19.25 C24.46740038 23.02520465 30.12645817 27.77731377 33 35 C34.40105898 44.07298679 34.98045796 52.89064349 30.25 61 C27.44061743 63.49722895 25.73545362 63.92217805 22 64 C19.45803929 63.07344562 18.25919628 62.38399448 16.734375 60.125 C16.24710938 59.073125 16.24710938 59.073125 15.75 58 C15.41484375 57.29875 15.0796875 56.5975 14.734375 55.875 C14 54 14 54 14 52 C13.01 52 12.02 52 11 52 C11 51.34 11 50.68 11 50 C8.69 49.67 6.38 49.34 4 49 C4.0407666 50.28052246 4.0815332 51.56104492 4.12353516 52.88037109 C4.27295749 57.66978602 4.40722182 62.45953052 4.53710938 67.24951172 C4.595203 69.31538572 4.65730688 71.38115126 4.72363281 73.44677734 C4.81871888 76.43046285 4.89896886 79.41425179 4.9765625 82.3984375 C5.00875885 83.30927094 5.0409552 84.22010437 5.0741272 85.15853882 C5.27177229 93.78239733 4.73971685 102.17439077 -1 109 C-6.62129556 114.56775942 -11.20227331 117.28336146 -19.3125 117.3125 C-27.10723552 117.18038584 -33.31483987 115.68516013 -39 110 C-45.22785029 101.76708571 -47.12513649 95.40097108 -46 85 C-43.75113957 78.07477091 -39.21881295 73.59230672 -33 70 C-28.71999815 67.83421593 -25.07679942 67.76117062 -20.3125 67.8125 C-19.29833008 67.8134668 -19.29833008 67.8134668 -18.26367188 67.81445312 C-13.2818674 67.8590663 -13.2818674 67.8590663 -11 69 C-11.00888245 68.1945575 -11.01776489 67.38911499 -11.0269165 66.55926514 C-11.10708005 58.96701455 -11.16797298 51.37496928 -11.20724869 43.78240585 C-11.22811969 39.87900482 -11.25642757 35.9759536 -11.30175781 32.07275391 C-11.34523427 28.3055808 -11.36914077 24.53874405 -11.37950897 20.77133942 C-11.38689723 19.33439081 -11.40132506 17.89746053 -11.42292023 16.46065521 C-11.45197203 14.44758575 -11.45363405 12.43417747 -11.45410156 10.42089844 C-11.46298401 9.27506287 -11.47186646 8.12922729 -11.48101807 6.94866943 C-10.39216297 0.27392273 -6.14740571 -0.76842571 0 0 Z " fill="#161716" transform="translate(856,264)"/>
<path d="M0 0 C7.69515791 3.32082407 11.55474609 14.42970121 14.6953125 21.84375 C21.78631776 40.38575425 18.98439195 62.11192562 11.33203125 80.06640625 C10.89246094 81.03449219 10.45289063 82.00257813 10 83 C9.34 83 8.68 83 8 83 C7.855625 83.61875 7.71125 84.2375 7.5625 84.875 C7 87 7 87 6 89 C5.7236746 92.17774212 5.63946386 94.30108665 7.11621094 97.16381836 C9.80929625 99.78884358 11.67673033 99.49794619 15.390625 99.50390625 C16.65777344 99.52259766 17.92492187 99.54128906 19.23046875 99.56054688 C20.57031042 99.5629984 21.91015657 99.56363464 23.25 99.5625 C41.66378486 99.62587094 41.66378486 99.62587094 48.8125 105.9375 C49.65748047 106.66259766 49.65748047 106.66259766 50.51953125 107.40234375 C53.38691335 110.49669541 54.30340859 113.31906176 54.375 117.5 C54.40335938 118.2528125 54.43171875 119.005625 54.4609375 119.78125 C53.79389615 122.99209309 52.59663132 124.00880985 50 126 C47.23350129 126.37421307 44.87165366 126.50754576 42.11035156 126.45410156 C40.92441658 126.45497772 40.92441658 126.45497772 39.71452332 126.45587158 C37.10610767 126.45308899 34.49884053 126.42198983 31.890625 126.390625 C30.08030827 126.38316321 28.26998346 126.37746998 26.45965576 126.37347412 C21.69848265 126.35821288 16.93779884 126.31892691 12.17681885 126.2746582 C7.31716531 126.23371603 2.4574326 126.21546536 -2.40234375 126.1953125 C-11.93511063 126.15243309 -21.4675146 126.08417585 -31 126 C-30.39490601 125.29607368 -30.39490601 125.29607368 -29.77758789 124.57792664 C-29.24383545 123.95626114 -28.71008301 123.33459564 -28.16015625 122.6940918 C-27.63301025 122.08043259 -27.10586426 121.46677338 -26.56274414 120.83451843 C-17.08972999 109.7140678 -9.98928972 98.81037637 -6.00396729 84.57655334 C-5.35127258 82.25138054 -4.67238644 79.93334639 -3.96331787 77.6247406 C-1.25229737 68.39534204 -0.39640419 59.7084289 -0.390625 50.09765625 C-0.37559205 48.63934035 -0.35885451 47.18104113 -0.34051514 45.72276306 C-0.29740145 41.94014574 -0.2769694 38.15775765 -0.26177979 34.37493896 C-0.2420031 30.49266302 -0.20005873 26.61062763 -0.16015625 22.72851562 C-0.08546332 15.15240935 -0.03480686 7.57640591 0 0 Z " fill="#D06A23" transform="translate(673,684)"/>
<path d="M0 0 C0.33 0 0.66 0 1 0 C1.04898438 0.62648438 1.09796875 1.25296875 1.1484375 1.8984375 C1.22320312 2.71570313 1.29796875 3.53296875 1.375 4.375 C1.44460937 5.18710937 1.51421875 5.99921875 1.5859375 6.8359375 C1.82892588 9.20334191 1.82892588 9.20334191 4 11 C6.18038892 11.22875262 8.37153211 11.35950438 10.5625 11.4375 C16.60451117 11.77351298 21.39346815 12.77672013 27 15 C27 15.66 27 16.32 27 17 C27.58007812 17.103125 28.16015625 17.20625 28.7578125 17.3125 C35.0941555 19.25535082 40.24827605 25.76216256 43.67578125 31.19921875 C45.37563452 34.79448364 46.44918854 38.40525927 47.4375 42.25 C47.6137793 42.93570068 47.79005859 43.62140137 47.97167969 44.32788086 C48.85670557 48.1603423 49.45736868 51.28856775 48 55 C42.55673946 60.19485778 33.74561485 66 26 66 C26 66.66 26 67.32 26 68 C17.81348075 69.72998143 9.90696786 70.19302888 1.5625 70.1875 C0.14203369 70.1884668 0.14203369 70.1884668 -1.30712891 70.18945312 C-5.97770231 70.1529837 -10.40747517 69.9583733 -15 69 C-13.02 68.505 -13.02 68.505 -11 68 C-11.42152344 66.87980469 -11.84304687 65.75960937 -12.27734375 64.60546875 C-12.83075824 63.13282342 -13.38414205 61.66016657 -13.9375 60.1875 C-14.21529297 59.44951172 -14.49308594 58.71152344 -14.77929688 57.95117188 C-15.04677734 57.23896484 -15.31425781 56.52675781 -15.58984375 55.79296875 C-15.83597412 55.1383667 -16.08210449 54.48376465 -16.33569336 53.80932617 C-17.51564383 50.59557647 -18.12776218 48.06449529 -18.1328125 44.65625 C-18.13410156 43.82222656 -18.13539063 42.98820312 -18.13671875 42.12890625 C-18.13285156 41.26136719 -18.12898437 40.39382813 -18.125 39.5 C-18.12886719 38.63246094 -18.13273438 37.76492188 -18.13671875 36.87109375 C-18.13542969 36.03707031 -18.13414062 35.20304687 -18.1328125 34.34375 C-18.13168457 33.58255859 -18.13055664 32.82136719 -18.12939453 32.03710938 C-18 30 -18 30 -17 27 C-16.34 27 -15.68 27 -15 27 C-14.92523438 26.41992188 -14.85046875 25.83984375 -14.7734375 25.2421875 C-13.71368465 18.94600882 -11.96604424 16.03491095 -7 12 C-6.34 12 -5.68 12 -5 12 C-5 11.34 -5 10.68 -5 10 C-3.35 9.67 -1.7 9.34 0 9 C0 6.03 0 3.06 0 0 Z " fill="#D76F25" transform="translate(223,415)"/>
<path d="M0 0 C3.51805745 2.61357265 6.68549758 5.2963862 9.625 8.5625 C10.36169922 9.34560547 10.36169922 9.34560547 11.11328125 10.14453125 C14.88111929 14.28634826 17.3977917 18.44269337 19.625 23.5625 C20.16833984 24.75746094 20.16833984 24.75746094 20.72265625 25.9765625 C26.77388401 39.98764899 27.21840192 60.36559232 21.625 74.5625 C21.09712891 76.03203125 21.09712891 76.03203125 20.55859375 77.53125 C15.19796877 91.54318065 7.13679759 101.80322783 -6.41015625 108.30078125 C-12.72900778 110.98983137 -17.87106866 111.94822082 -24.6875 111.9375 C-25.52966064 111.93878906 -26.37182129 111.94007813 -27.23950195 111.94140625 C-33.48739327 111.83480142 -37.95629624 110.83417019 -43.375 107.5625 C-43.375 107.2325 -43.375 106.9025 -43.375 106.5625 C-42.59898437 106.57152344 -41.82296875 106.58054687 -41.0234375 106.58984375 C-30.17127633 106.29199207 -20.36009776 102.71530141 -12.375 95.1875 C-11.342345 94.0069522 -10.34137366 92.79789119 -9.375 91.5625 C-8.59769531 90.63244141 -8.59769531 90.63244141 -7.8046875 89.68359375 C2.22306696 76.40563747 4.1330641 57.60326374 2.12890625 41.6015625 C0.74144023 33.87251451 -1.32747112 27.29565338 -5.375 20.5625 C-5.973125 19.53125 -6.57125 18.5 -7.1875 17.4375 C-13.72728116 8.84235905 -21.67538418 2.1304078 -32.375 -0.4375 C-36.03592876 -0.8747776 -39.6967626 -1.18879356 -43.375 -1.4375 C-43.045 -2.4275 -42.715 -3.4175 -42.375 -4.4375 C-28.56409536 -11.09632902 -12.32973099 -8.29224199 0 0 Z " fill="#7AD0D4" transform="translate(552.375,376.4375)"/>
<path d="M0 0 C10.38559049 -0.94414459 19.40178216 3.5544344 27.44921875 9.7734375 C32.28734913 13.9966141 36.43976586 18.65964879 40 24 C40 24.99 40 25.98 40 27 C40.66 27 41.32 27 42 27 C42.81436587 29.41605225 43.62655397 31.83279998 44.4375 34.25 C44.66759766 34.93191406 44.89769531 35.61382812 45.13476562 36.31640625 C47.53405256 43.47949478 48.1825457 49.21946564 48.1875 56.75 C48.19974609 57.71421875 48.21199219 58.6784375 48.22460938 59.671875 C48.25239579 73.30574456 43.31936901 87.11502059 35 98 C33.06386225 99.76783175 31.06150831 101.37430429 29 103 C29.01047363 102.31075439 29.02094727 101.62150879 29.03173828 100.91137695 C29.43089354 84.14446292 29.43089354 84.14446292 27.4375 67.55078125 C26.9423253 64.66373592 26.93151118 61.92361647 27 59 C26.34 59 25.68 59 25 59 C24.78085937 58.01902344 24.56171875 57.03804688 24.3359375 56.02734375 C21.38119336 43.27495477 17.12750023 31.49990609 10.8828125 19.953125 C10 18 10 18 10 15 C9.34 15 8.68 15 8 15 C6.52690889 12.89980986 5.18690365 10.82232271 3.875 8.625 C3.50246094 8.02171875 3.12992188 7.4184375 2.74609375 6.796875 C0 2.27034684 0 2.27034684 0 0 Z " fill="#79D0D3" transform="translate(747,368)"/>
<path d="M0 0 C2.1875 0.3046875 2.1875 0.3046875 5.625 1.4921875 C5.625 2.1521875 5.625 2.8121875 5.625 3.4921875 C6.29273438 3.585 6.96046875 3.6778125 7.6484375 3.7734375 C11.43818239 4.6885465 14.77961211 6.26194536 18.25 7.9921875 C19.3030835 8.51534546 19.3030835 8.51534546 20.37744141 9.04907227 C26.07677404 11.98984461 30.7653079 15.46167316 35.5859375 19.70703125 C37.50140665 21.53567595 37.50140665 21.53567595 39.625 22.4921875 C39.625 32.3921875 39.625 42.2921875 39.625 52.4921875 C35.67392194 51.17516148 32.69005889 50.13865731 29.1640625 48.21484375 C28.36226562 47.78365234 27.56046875 47.35246094 26.734375 46.90820312 C25.0857904 46.01003557 23.43735148 45.11160057 21.7890625 44.21289062 C13.97439558 40.01125481 6.16013703 37.2267305 -2.375 34.8671875 C-3.13039063 34.650625 -3.88578125 34.4340625 -4.6640625 34.2109375 C-9.56657192 32.84632147 -14.31168118 32.01002693 -19.375 31.4921875 C-18.86728528 25.52653954 -16.98907872 20.85408851 -14.375 15.4921875 C-13.715 15.4921875 -13.055 15.4921875 -12.375 15.4921875 C-12.29378906 14.95207031 -12.21257813 14.41195313 -12.12890625 13.85546875 C-10.45070654 8.5947909 -5.64268155 1.1693715 0 0 Z " fill="#D26C25" transform="translate(666.375,275.5078125)"/>
<path d="M0 0 C6.11159921 -0.13862602 11.63335505 0.31272173 17.625 1.4375 C28.73053197 3.37591602 39.73821947 3.65873392 51 4 C51 13.57 51 23.14 51 33 C48.69 32.401875 46.38 31.80375 44 31.1875 C38.46432658 29.78159667 32.93778351 28.56846026 27.3125 27.5625 C17.44513592 25.79168691 7.73240002 23.3919332 -2 21 C-2 20.34 -2 19.68 -2 19 C-2.99 19 -3.98 19 -5 19 C-4.91245449 17.24908981 -4.80426627 15.49920449 -4.6875 13.75 C-4.62949219 12.77546875 -4.57148437 11.8009375 -4.51171875 10.796875 C-3.9437779 7.69270973 -2.9451263 6.42015714 -1 4 C-0.62833747 2.67683869 -0.28918431 1.34360014 0 0 Z " fill="#F7CCC8" transform="translate(607,557)"/>
<path d="M0 0 C1.9169986 0.31045732 3.83358723 0.62344671 5.75 0.9375 C6.81734375 1.11152344 7.8846875 1.28554688 8.984375 1.46484375 C11.36347593 1.88704171 13.66915211 2.37202884 16 3 C16 3.66 16 4.32 16 5 C17.08861328 5.16822266 17.08861328 5.16822266 18.19921875 5.33984375 C21.12563993 6.02961387 23.22287809 7.05510814 25.8125 8.5625 C26.60269531 9.01753906 27.39289062 9.47257812 28.20703125 9.94140625 C28.79871094 10.29074219 29.39039063 10.64007813 30 11 C30 14 30 14 28.06640625 16.19140625 C27.24011719 16.97386719 26.41382813 17.75632812 25.5625 18.5625 C22.36158822 21.46895693 22.36158822 21.46895693 20 25 C19.16855469 24.88140625 18.33710937 24.7628125 17.48046875 24.640625 C15.85044922 24.44726562 15.85044922 24.44726562 14.1875 24.25 C13.10855469 24.11078125 12.02960937 23.9715625 10.91796875 23.828125 C7.96057937 23.70154324 7.96057937 23.70154324 6.17578125 25.609375 C2.88348917 32.30333763 3.68124271 40.63258506 3.48242188 47.9453125 C3.30043642 52.9859662 2.97098196 57.27602704 1 62 C0.34 62 -0.32 62 -1 62 C-1.12117188 62.67804688 -1.24234375 63.35609375 -1.3671875 64.0546875 C-2.50700762 70.38507309 -3.71489693 76.69752644 -5 83 C-5.66 83 -6.32 83 -7 83 C-11.69269038 62.8884698 -13.24140637 43.16268665 -8 23 C-7.67960494 21.59465343 -7.36336495 20.18835462 -7.05078125 18.78125 C-5.46030895 11.85691481 -3.73961718 6.05833597 0 0 Z " fill="#E78338" transform="translate(513,257)"/>
<path d="M0 0 C1.65 0 3.3 0 5 0 C5 0.66 5 1.32 5 2 C6.08667969 2.16435547 6.08667969 2.16435547 7.1953125 2.33203125 C12.65012665 3.22662077 17.2162205 4.10979988 22 7 C23.28390625 7.70962891 23.28390625 7.70962891 24.59375 8.43359375 C31.27652067 12.32289442 35.37536884 16.16750711 39 23 C39.37125 23.60714844 39.7425 24.21429687 40.125 24.83984375 C42.32328133 30.26685079 42.06840753 37.72658119 40.265625 43.25 C38.54160224 45.84852706 36.50611833 46.87888452 33.53515625 47.58984375 C28.08498662 48.02555156 24.44428979 47.14726485 20 43.9375 C16.22208089 40.60563216 14.39075285 37.82127655 13 33 C13 32.01 13 31.02 13 30 C12.34 30 11.68 30 11 30 C10.484375 28.824375 9.96875 27.64875 9.4375 26.4375 C7.80682143 23.04663049 6.19868156 21.23424183 3.25 18.9375 C0.3918179 16.34136871 0.01893235 15.1590317 -0.44921875 11.2265625 C-0.51141163 7.46700271 -0.30375511 3.74631298 0 0 Z " fill="#CD6621" transform="translate(673,584)"/>
<path d="M0 0 C1.39025391 -0.02126953 1.39025391 -0.02126953 2.80859375 -0.04296875 C6.70337554 0.28297753 9.45289249 1.14662924 12.328125 3.84375 C12.81796875 4.4521875 13.3078125 5.060625 13.8125 5.6875 C14.31265625 6.2959375 14.8128125 6.904375 15.328125 7.53125 C17.86015792 10.92866126 17.69685083 13.4311541 17.6875 17.625 C17.69136719 19.35556641 17.69136719 19.35556641 17.6953125 21.12109375 C17.45859491 26.58648508 15.4657155 28.55660186 11.5625 32.1875 C6.97136862 35.96843173 3.03452085 36.60862439 -2.80078125 36.5234375 C-7.94102845 35.86853193 -11.56714494 33.47525068 -14.8203125 29.49609375 C-18.17061357 23.88492518 -18.59438386 17.53334821 -17.4375 11.1875 C-15.41071844 7.26987954 -11.97715358 2.05998493 -7.65234375 0.57421875 C-5.07099087 0.12350634 -2.62068088 0.01817393 0 0 Z " fill="#090502" transform="translate(639.4375,413.8125)"/>
<path d="M0 0 C4.97515305 -0.39277524 8.95930444 0.73921498 13.6328125 2.24609375 C17.47511656 3.46979785 20.76860133 4.12487857 24.81820297 4.12304783 C25.79106774 4.12503888 26.76393251 4.12702993 27.76627803 4.12908131 C28.83241934 4.12616847 29.89856065 4.12325563 30.99700928 4.12025452 C32.69885183 4.12153615 32.69885183 4.12153615 34.43507504 4.12284368 C38.25067789 4.12449559 42.06623712 4.11898178 45.88183594 4.11352539 C48.61145557 4.1126871 51.34107433 4.11335735 54.07069397 4.1139679 C59.95453089 4.11449245 65.83835673 4.11135273 71.72219086 4.10573006 C80.22924539 4.09760588 88.73629457 4.09499889 97.24335256 4.09374207 C111.04521334 4.09155299 124.84706821 4.08489682 138.64892578 4.07543945 C152.05680308 4.0662616 165.46467878 4.05918259 178.87255859 4.05493164 C179.69890547 4.05466892 180.52525236 4.05440619 181.37664005 4.05413551 C185.52214524 4.05283048 189.66765044 4.05156677 193.81315565 4.05032361 C228.20877469 4.0399555 262.60438671 4.0223411 297 4 C294.00313264 6.99686736 290.63685569 6.35379927 286.61068726 6.40692139 C285.73850878 6.42577534 284.8663303 6.4446293 283.96772218 6.46405458 C281.04417112 6.5238501 278.12060918 6.56851508 275.19677734 6.61230469 C273.11699512 6.64980338 271.03721906 6.68764573 268.95744896 6.725811 C245.7830311 7.12720716 222.60607005 7.1820365 199.42873812 7.20018864 C195.79172788 7.20317412 192.15472042 7.20728626 188.51771164 7.21169281 C177.06704532 7.22523001 165.61638574 7.23497517 154.165712 7.2388947 C141.06655108 7.24340894 127.96749275 7.26116862 114.86836302 7.2898953 C104.63457172 7.31154537 94.40080935 7.32159997 84.16699541 7.32293582 C78.0962098 7.323977 72.02552251 7.32974313 65.95476151 7.34775543 C60.27263962 7.36430519 54.59068967 7.36635835 48.90855217 7.35761642 C46.8382553 7.35685106 44.7679488 7.3611219 42.6976757 7.37107468 C28.03041314 7.43741701 13.66653919 6.9791109 0 1 C0 0.67 0 0.34 0 0 Z " fill="#A9A9A9" transform="translate(432,820)"/>
<path d="M0 0 C0.90105469 0.01804687 1.80210937 0.03609375 2.73046875 0.0546875 C3.41753906 0.07789063 4.10460937 0.10109375 4.8125 0.125 C4.8125 0.785 4.8125 1.445 4.8125 2.125 C5.410625 2.228125 6.00875 2.33125 6.625 2.4375 C9.21249357 3.25071227 10.13580813 4.00682624 11.8125 6.125 C12.50205439 9.51530911 12.40943351 12.72247901 11.8125 16.125 C9.62227082 18.94924288 7.98232793 20.54008603 4.8125 22.125 C-0.48199372 22.47217992 -3.93413444 22.64921718 -8.1875 19.125 C-11.71171718 14.87163444 -11.53467992 11.41949372 -11.1875 6.125 C-10.8575 5.465 -10.5275 4.805 -10.1875 4.125 C-9.5275 4.125 -8.8675 4.125 -8.1875 4.125 C-8.1875 3.465 -8.1875 2.805 -8.1875 2.125 C-4.87379 -0.08414 -3.8428979 -0.09981553 0 0 Z " fill="#A0CC61" transform="translate(835.1875,344.875)"/>
<path d="M0 0 C0.99644531 0.26425781 1.99289062 0.52851562 3.01953125 0.80078125 C5.1585691 1.39950085 7.28310609 2.05225666 9.390625 2.75390625 C14.31545878 3.96484789 19.07145079 4.14669661 24.125 4.3125 C25.09501953 4.35117187 26.06503906 4.38984375 27.06445312 4.4296875 C29.43862076 4.52325076 31.81279492 4.60899208 34.1875 4.6875 C34.1875 5.0175 34.1875 5.3475 34.1875 5.6875 C28.9075 5.6875 23.6275 5.6875 18.1875 5.6875 C18.1875 8.3275 18.1875 10.9675 18.1875 13.6875 C18.04513811 16.18900172 17.87966687 18.68933074 17.6875 21.1875 C17.54828125 23.02828125 17.54828125 23.02828125 17.40625 24.90625 C17.3340625 25.8240625 17.261875 26.741875 17.1875 27.6875 C15.1875 26.6875 15.1875 26.6875 13.8125 24.39453125 C7.76808921 14.32535654 -3.39790207 6.65845011 -13.8125 1.6875 C-13.1525 1.0275 -12.4925 0.3675 -11.8125 -0.3125 C-11.1525 -0.3125 -10.4925 -0.3125 -9.8125 -0.3125 C-9.23113281 -0.50457031 -8.64976562 -0.69664062 -8.05078125 -0.89453125 C-5.05214028 -1.45448689 -2.93456055 -0.7948553 0 0 Z " fill="#E7863D" transform="translate(558.8125,650.3125)"/>
<path d="M0 0 C2.30576694 3.64548133 2.23699872 6.75210978 2.1875 11 C2.18105469 12.216875 2.17460938 13.43375 2.16796875 14.6875 C2.03394204 17.33063144 1.78329524 19.49345523 1 22 C-2.22265625 21.87890625 -2.22265625 21.87890625 -6 21 C-8.43359375 18.27734375 -8.43359375 18.27734375 -10.4375 14.9375 C-11.11683594 13.83277344 -11.79617188 12.72804688 -12.49609375 11.58984375 C-12.99238281 10.73519531 -13.48867188 9.88054687 -14 9 C-13.01 8.67 -12.02 8.34 -11 8 C-10.67 7.34 -10.34 6.68 -10 6 C-9.34 6.33 -8.68 6.66 -8 7 C-8 6.34 -8 5.68 -8 5 C-7.01 5 -6.02 5 -5 5 C-4.67 4.34 -4.34 3.68 -4 3 C-4 3.66 -4 4.32 -4 5 C-3.34 5 -2.68 5 -2 5 C-1.34 3.35 -0.68 1.7 0 0 Z " fill="#ECEDEC" transform="translate(605,280)"/>
<path d="M0 0 C4.97515305 -0.39277524 8.95930444 0.73921498 13.6328125 2.24609375 C17.79199644 3.57071834 21.32943598 4.13027823 25.72003174 4.15821838 C27.47000961 4.17290161 27.47000961 4.17290161 29.25534058 4.18788147 C30.53136139 4.19363693 31.8073822 4.1993924 33.12207031 4.20532227 C34.48225194 4.21490469 35.84243062 4.22491499 37.2026062 4.23532104 C40.89231538 4.26233668 44.58203731 4.28336431 48.2717905 4.30332303 C52.12886943 4.32520321 55.98590921 4.35258195 59.84295654 4.37937927 C67.14557436 4.42927869 74.44821394 4.47422772 81.75087428 4.51740164 C90.06522402 4.56679753 98.37953449 4.62170694 106.69384623 4.67708123 C123.79586117 4.79085904 140.89791259 4.89770722 158 5 C158 5.33 158 5.66 158 6 C139.74460198 6.09374722 121.48926708 6.16412726 103.23367977 6.20724869 C94.75588333 6.22780946 86.27823709 6.25580481 77.80053711 6.30175781 C70.40502598 6.3418255 63.00962372 6.36747985 55.61400706 6.37635398 C51.70379142 6.38153528 47.79388704 6.39357497 43.8837719 6.42292023 C40.19094068 6.45040589 36.49854399 6.45837949 32.80562019 6.45243073 C30.82962574 6.45402755 28.85367681 6.47537458 26.87780762 6.49768066 C17.82187853 6.45671125 9.512725 5.13739581 1 2 C0.67 1.34 0.34 0.68 0 0 Z " fill="#5D5D5C" transform="translate(432,820)"/>
<path d="M0 0 C0.99 0.99 0.99 0.99 2 2 C-1.28659663 1.40066243 -4.34336435 0.60979786 -7.484375 -0.5234375 C-17.32374231 -3.98936496 -26.81442407 -6.84974818 -37.140625 -8.39453125 C-39.90310484 -8.82791624 -42.45461371 -9.34868486 -45.15039062 -10.0234375 C-49.96417468 -11.10253182 -54.53540461 -11.27394284 -59.453125 -11.23046875 C-60.74799835 -11.22978142 -60.74799835 -11.22978142 -62.06903076 -11.2290802 C-63.87741487 -11.22608199 -65.68579696 -11.21826961 -67.49414062 -11.20581055 C-70.25660362 -11.18745612 -73.0187321 -11.18530197 -75.78125 -11.18554688 C-77.54687789 -11.18063401 -79.31250352 -11.17480671 -81.078125 -11.16796875 C-81.89903625 -11.16685593 -82.71994751 -11.1657431 -83.56573486 -11.16459656 C-87.52056367 -11.13188834 -91.13047752 -10.90905342 -95 -10 C-96.76977761 -9.93540958 -98.54170152 -9.91388935 -100.3125 -9.9375 C-101.19550781 -9.94652344 -102.07851563 -9.95554688 -102.98828125 -9.96484375 C-103.65214844 -9.97644531 -104.31601562 -9.98804688 -105 -10 C-105 -10.33 -105 -10.66 -105 -11 C-101.01152021 -11.74833753 -97.01127721 -12.386029 -93 -13 C-92.0109668 -13.16000488 -92.0109668 -13.16000488 -91.00195312 -13.32324219 C-61.39536481 -17.95187782 -27.10414982 -12.92428314 0 0 Z " fill="#878585" transform="translate(368,265)"/>
<path d="M0 0 C1.41750563 0.11509661 2.83401169 0.24253658 4.25 0.375 C5.03890625 0.44460938 5.8278125 0.51421875 6.640625 0.5859375 C9.11116108 1.0195084 10.79137657 1.8428925 13 3 C18.54387682 4.65022014 24.18262869 5.31290893 29.93359375 5.75390625 C32 6 32 6 34 7 C35.48100811 7.08963847 36.96599424 7.11757925 38.44970703 7.11352539 C39.37051056 7.11344986 40.29131409 7.11337433 41.24002075 7.11329651 C42.23589203 7.10813522 43.23176331 7.10297394 44.2578125 7.09765625 C45.27600067 7.0962413 46.29418884 7.09482635 47.3432312 7.09336853 C50.60385035 7.087759 53.86440151 7.07520488 57.125 7.0625 C59.33203026 7.05748623 61.53906159 7.05292311 63.74609375 7.04882812 C69.16408581 7.03778648 74.58203805 7.02103905 80 7 C80 7.33 80 7.66 80 8 C53.86248263 12.91270856 27.13834374 11.0683105 2 2 C1.34 1.34 0.68 0.68 0 0 Z " fill="#828382" transform="translate(327,801)"/>
<path d="M0 0 C2.92621152 3.36096294 3.95876664 6.60493297 5.125 10.875 C5.45757813 12.06867188 5.79015625 13.26234375 6.1328125 14.4921875 C10.27122813 31.23226512 8.59724724 48.56073644 4 65 C2.75131246 60.77259318 3.35461609 57.04899582 3.9375 52.75 C5.66089366 38.5763754 7.47013242 20.64953295 1.42578125 7.28515625 C0 4 0 4 0 0 Z " fill="#6E6E6E" transform="translate(801,390)"/>
<path d="M0 0 C0.33 0 0.66 0 1 0 C1 2.97 1 5.94 1 9 C1.33 9 1.66 9 2 9 C2.1968999 11.35371114 2.38270974 13.7074695 2.5625 16.0625 C2.66691406 17.37347656 2.77132813 18.68445313 2.87890625 20.03515625 C2.99765619 23.92325897 2.66866216 27.19110223 2 31 C0.01388388 29.01388388 -0.91454712 27.55856751 -2 25 C-2 24.01 -2 23.02 -2 22 C-3.485 27.94 -3.485 27.94 -5 34 C-6.09564419 29.61742324 -5.67621332 27.7532611 -4.625 23.4375 C-3.38658104 18.05794253 -2.58871035 12.9113036 -2.30859375 7.40234375 C-1.95972284 4.68644992 -1.10706981 2.49424162 0 0 Z " fill="#C7C6C4" transform="translate(466,463)"/>
<path d="M0 0 C1.65 0.33 3.3 0.66 5 1 C5 29.05 5 57.1 5 86 C4.67 86 4.34 86 4 86 C4 58.28 4 30.56 4 2 C2.68 2.33 1.36 2.66 0 3 C0 2.01 0 1.02 0 0 Z " fill="#C7A3A2" transform="translate(653,656)"/>
<path d="M0 0 C5.08210901 1.19579035 7.97941197 2.53782697 12 6 C12.99 6.33 13.98 6.66 15 7 C17 10 17 10 17 13 C16.47921875 12.70351563 15.9584375 12.40703125 15.421875 12.1015625 C12.42085254 10.73658132 9.46803651 10.08296803 6.25 9.375 C5.07953125 9.11460937 3.9090625 8.85421875 2.703125 8.5859375 C1.81109375 8.39257812 0.9190625 8.19921875 0 8 C0 5.36 0 2.72 0 0 Z " fill="#7FB157" transform="translate(858,291)"/>
<path d="M0 0 C-16.70842825 5.55580866 -16.70842825 5.55580866 -25 6 C-25 8.64 -25 11.28 -25 14 C-23.9378125 14.25394531 -22.875625 14.50789062 -21.78125 14.76953125 C-14.68774316 16.48927086 -7.75502741 18.18540524 -1 21 C-4.84985753 22.28328584 -6.38234836 21.41866234 -10.1875 20.125 C-14.06768684 18.85906195 -17.68262358 17.75885404 -21.75 17.375 C-23.35875 17.189375 -23.35875 17.189375 -25 17 C-26.26237731 14.47524538 -26.09856404 12.68799534 -26.0625 9.875 C-26.05347656 8.96492187 -26.04445313 8.05484375 -26.03515625 7.1171875 C-26.02355469 6.41851563 -26.01195312 5.71984375 -26 5 C-25.26136719 4.81824219 -24.52273438 4.63648438 -23.76171875 4.44921875 C-22.74722656 4.19785156 -21.73273437 3.94648437 -20.6875 3.6875 C-19.59953125 3.41808594 -18.5115625 3.14867187 -17.390625 2.87109375 C-13.32407752 1.8263471 -9.29914042 0.65789228 -5.27734375 -0.546875 C-3 -1 -3 -1 0 0 Z " fill="#A1A0A0" transform="translate(699,553)"/>
<path d="M0 0 C0.99 0.33 1.98 0.66 3 1 C-13.0936579 7.47030736 -28.86270163 9.77056714 -46 7 C-46 6.67 -46 6.34 -46 6 C-35.11 5.67 -24.22 5.34 -13 5 C-13 4.34 -13 3.68 -13 3 C-12.22914063 2.86722656 -11.45828125 2.73445313 -10.6640625 2.59765625 C-9.66117188 2.42105469 -8.65828125 2.24445313 -7.625 2.0625 C-6.62726563 1.88847656 -5.62953125 1.71445312 -4.6015625 1.53515625 C-2.03090344 1.12287938 -2.03090344 1.12287938 0 0 Z " fill="#979796" transform="translate(258,494)"/>
<path d="M0 0 C0 0.33 0 0.66 0 1 C-6.435 1.495 -6.435 1.495 -13 2 C-13.33 3.32 -13.66 4.64 -14 6 C-12.68 5.67 -11.36 5.34 -10 5 C-10 5.99 -10 6.98 -10 8 C-15.61 7.34 -21.22 6.68 -27 6 C-26.67 5.01 -26.34 4.02 -26 3 C-17.66350654 -1.01938078 -9.03440417 -0.28005616 0 0 Z " fill="#5EAAAC" transform="translate(536,369)"/>
<path d="M0 0 C0.66 0.66 1.32 1.32 2 2 C1.05680908 2.02505615 0.11361816 2.0501123 -0.8581543 2.07592773 C-4.37128663 2.17129809 -7.88426708 2.27051725 -11.3972168 2.37231445 C-12.91507755 2.41551548 -14.43298226 2.45720048 -15.95092773 2.49731445 C-18.13799259 2.55537812 -20.32483918 2.61896656 -22.51171875 2.68359375 C-24.48338013 2.73858032 -24.48338013 2.73858032 -26.49487305 2.79467773 C-29.45445125 2.96804301 -32.11650827 3.36235396 -35 4 C-36.76977761 4.06459042 -38.54170152 4.08611065 -40.3125 4.0625 C-41.19550781 4.05347656 -42.07851563 4.04445312 -42.98828125 4.03515625 C-43.65214844 4.02355469 -44.31601562 4.01195312 -45 4 C-45 3.67 -45 3.34 -45 3 C-14.52839786 -2.71722675 -14.52839786 -2.71722675 0 0 Z " fill="#959494" transform="translate(308,251)"/>
<path d="M0 0 C0.66 0.33 1.32 0.66 2 1 C-13.06326022 17.46353378 -13.06326022 17.46353378 -20 23 C-20 18.6571337 -17.34523917 16.73393822 -14.5 13.75 C-13.68547363 12.88145386 -13.68547363 12.88145386 -12.85449219 11.99536133 C-8.80100348 7.72074055 -4.58373768 3.70743489 0 0 Z " fill="#6C6C6B" transform="translate(190,288)"/>
<path d="M0 0 C0.66 0.33 1.32 0.66 2 1 C0.40128806 5.15665105 -2.61307461 8.1991075 -6 11 C-6.99 11.33 -7.98 11.66 -9 12 C-10.20882096 14.00016466 -10.20882096 14.00016466 -11 16 C-11.99 16 -12.98 16 -14 16 C-14 16.66 -14 17.32 -14 18 C-14.66 17.67 -15.32 17.34 -16 17 C-10.94647258 11.03651266 -5.58288259 5.46894621 0 0 Z " fill="#D4B548" transform="translate(559,273)"/>
<path d="M0 0 C0.66 0.33 1.32 0.66 2 1 C-3.3250511 7.12627407 -8.72690435 12.83794309 -15 18 C-15 13.74508832 -12.52840258 11.92686684 -9.75 9 C-9.25886719 8.46632813 -8.76773437 7.93265625 -8.26171875 7.3828125 C-5.68642506 4.62209767 -3.11691202 2.1373111 0 0 Z " fill="#606162" transform="translate(494,366)"/>
<path d="M0 0 C4.14527611 2.7635174 4.25613419 5.48001034 5.4375 10.15625 C6.11336431 13.57311956 6.23100959 16.53485612 6 20 C0.25 16.25 0.25 16.25 -2 14 C-2.01171875 10.99609375 -2.01171875 10.99609375 -1.6875 7.4375 C-1.58824219 6.26058594 -1.48898437 5.08367187 -1.38671875 3.87109375 C-1 1 -1 1 0 0 Z M0 3 C-1.41366058 9.62529336 -1.41366058 9.62529336 0.8125 15.625 C2.85158663 17.17739052 2.85158663 17.17739052 5 17 C4.74412595 15.22694336 4.46972261 13.45655392 4.1875 11.6875 C3.96126953 10.20830078 3.96126953 10.20830078 3.73046875 8.69921875 C2.96563295 5.87300731 2.24741238 4.8040872 0 3 Z " fill="#A8A6A7" transform="translate(722,326)"/>
<path d="M0 0 C0.74056641 0.00451172 1.48113281 0.00902344 2.24414062 0.01367188 C4.05862899 0.02537825 5.87307534 0.04331102 7.6875 0.0625 C7.6875 0.3925 7.6875 0.7225 7.6875 1.0625 C1.0875 1.3925 -5.5125 1.7225 -12.3125 2.0625 C-12.9725 3.3825 -13.6325 4.7025 -14.3125 6.0625 C-14.6425 6.3925 -14.9725 6.7225 -15.3125 7.0625 C-15.35342937 9.39547433 -15.35491723 11.72955225 -15.3125 14.0625 C-15.9725 13.7325 -16.6325 13.4025 -17.3125 13.0625 C-17.79898649 5.7652027 -17.79898649 5.7652027 -15.625 2.625 C-10.89438392 -0.57136222 -5.5255517 -0.06419318 0 0 Z " fill="#65361A" transform="translate(753.3125,453.9375)"/>
<path d="M0 0 C4.92793426 -0.38904744 8.82496819 0.71961104 13.453125 2.19921875 C16.93506899 3.29400175 20.4521905 4.14589771 24 5 C24 5.33 24 5.66 24 6 C18.38876604 6.45805991 13.48616405 5.55278776 8.0625 4.125 C7.38759521 3.95129883 6.71269043 3.77759766 6.01733398 3.59863281 C4.32496976 3.13287214 2.65904411 2.57323845 1 2 C0.67 1.34 0.34 0.68 0 0 Z " fill="#757675" transform="translate(432,820)"/>
<path d="M0 0 C3.3 0 6.6 0 10 0 C10 0.66 10 1.32 10 2 C13.171738 3.585869 16.63513822 3.37866445 20.125 3.5625 C21.25615234 3.62727539 21.25615234 3.62727539 22.41015625 3.69335938 C24.27321888 3.7994832 26.13658524 3.90025001 28 4 C28 4.33 28 4.66 28 5 C7.84738041 5.738041 7.84738041 5.738041 0 1 C0 0.67 0 0.34 0 0 Z " fill="#539397" transform="translate(509,483)"/>
<path d="M0 0 C0.66 0.33 1.32 0.66 2 1 C-0.61691164 3.67470955 -3.24481708 6.33834481 -5.875 9 C-6.62136719 9.763125 -7.36773438 10.52625 -8.13671875 11.3125 C-8.85214844 12.034375 -9.56757812 12.75625 -10.3046875 13.5 C-11.2944458 14.50546875 -11.2944458 14.50546875 -12.30419922 15.53125 C-14 17 -14 17 -16 17 C-16 16.34 -16 15.68 -16 15 C-15.34 15 -14.68 15 -14 15 C-13.69449219 14.18789063 -13.69449219 14.18789063 -13.3828125 13.359375 C-11.44687192 10.05624474 -8.71300664 7.75877153 -5.875 5.25 C-5.31167969 4.74339844 -4.74835937 4.23679687 -4.16796875 3.71484375 C-2.78348469 2.47115468 -1.39238512 1.23483695 0 0 Z " fill="#332B0E" transform="translate(573,280)"/>
<path d="M0 0 C0.99 0.33 1.98 0.66 3 1 C2.38125 1.04125 1.7625 1.0825 1.125 1.125 C0.42375 1.41375 -0.2775 1.7025 -1 2 C-2.07585059 4.72435637 -2.07585059 4.72435637 -3 8 C-3.65872744 9.20369874 -4.34750753 10.39134746 -5.0625 11.5625 C-7.11865986 14.76725399 -7.11865986 14.76725399 -7.5 17.8125 C-8 20 -8 20 -9.9375 21.25 C-10.618125 21.4975 -11.29875 21.745 -12 22 C-12.66 22.33 -13.32 22.66 -14 23 C-11.97781421 18.90746766 -9.7838579 14.92446062 -7.5625 10.9375 C-6.96985352 9.85758789 -6.96985352 9.85758789 -6.36523438 8.75585938 C-5.78418945 7.71461914 -5.78418945 7.71461914 -5.19140625 6.65234375 C-4.84279541 6.02320068 -4.49418457 5.39405762 -4.13500977 4.74584961 C-2.93766425 2.90411638 -1.60240944 1.49506552 0 0 Z " fill="#A9AAAA" transform="translate(770,491)"/>
<path d="M0 0 C0.82622671 5.60563042 1.06795656 10.42289352 0 16 C-3.11604461 12.88395539 -3.92266035 10.88167206 -4.3125 6.4375 C-4 3 -4 3 -2.5625 1.0625 C-1 0 -1 0 0 0 Z " fill="#EBEBEB" transform="translate(468,478)"/>
<path d="M0 0 C1.09141134 3.25958421 0.9119066 5.00172169 -0.3125 8.1875 C-1.74691339 12.11428778 -2.66681018 15.93833415 -3.375 20.0546875 C-4.11809773 22.36757917 -5.18160078 23.42866589 -7 25 C-6.31903133 20.07071543 -5.02151563 15.52919845 -3.5 10.8125 C-3.27441406 10.10158203 -3.04882812 9.39066406 -2.81640625 8.65820312 C-1.89664786 5.76559018 -0.9598542 2.87956259 0 0 Z " fill="#A8A6A5" transform="translate(253,575)"/>
<path d="M0 0 C-1.32 0.33 -2.64 0.66 -4 1 C-4 1.66 -4 2.32 -4 3 C-4.99 3 -5.98 3 -7 3 C-7.33 3.99 -7.66 4.98 -8 6 C-11.5625 7.6875 -11.5625 7.6875 -15 9 C-14.05439121 5.65659748 -13.44641475 4.28520943 -10.46875 2.3828125 C-9.4890625 1.96773438 -8.509375 1.55265625 -7.5 1.125 C-6.5203125 0.69445312 -5.540625 0.26390625 -4.53125 -0.1796875 C-2 -1 -2 -1 0 0 Z " fill="#C4A948" transform="translate(592,255)"/>
<path d="M0 0 C-0.33 1.32 -0.66 2.64 -1 4 C-3.97 4 -6.94 4 -10 4 C-9 1 -9 1 -6.6875 -0.25 C-3.90126985 -1.0275526 -2.66561622 -0.98726527 0 0 Z " fill="#559D9C" transform="translate(519,371)"/>
<path d="M0 0 C0.33 0.99 0.66 1.98 1 3 C-2.63 6.63 -6.26 10.26 -10 14 C-10.66 13.67 -11.32 13.34 -12 13 C-10.18777319 11.02058257 -8.37523172 9.04145495 -6.5625 7.0625 C-6.04623047 6.49853516 -5.52996094 5.93457031 -4.99804688 5.35351562 C-1.11328125 1.11328125 -1.11328125 1.11328125 0 0 Z " fill="#C46D2D" transform="translate(456,543)"/>
<path d="M0 0 C0.66 0 1.32 0 2 0 C1.54022084 4.59779161 1.12080635 7.89977438 -1 12 C-0.979375 12.86625 -0.95875 13.7325 -0.9375 14.625 C-0.958125 15.40875 -0.97875 16.1925 -1 17 C-1.99 17.66 -2.98 18.32 -4 19 C-3.59060025 12.23784552 -2.43046191 6.32837252 0 0 Z " fill="#C77434" transform="translate(284,525)"/>
<path d="M0 0 C3.65316671 1.24976756 4.78065836 1.67098753 7 5 C7 5.99 7 6.98 7 8 C6.43796875 7.69320313 5.8759375 7.38640625 5.296875 7.0703125 C2.93653066 5.97042415 0.79534438 5.39904149 -1.75 4.875 C-2.54921875 4.70742188 -3.3484375 4.53984375 -4.171875 4.3671875 C-4.77515625 4.24601562 -5.3784375 4.12484375 -6 4 C-6 3.67 -6 3.34 -6 3 C-5.195625 2.87625 -4.39125 2.7525 -3.5625 2.625 C-2.716875 2.41875 -1.87125 2.2125 -1 2 C-0.67 1.34 -0.34 0.68 0 0 Z " fill="#6A8E47" transform="translate(868,296)"/>
<path d="M0 0 C0.66 0 1.32 0 2 0 C1.08486681 2.28783297 0.34515354 3.73449728 -1.625 5.25 C-5.25926821 6.39766365 -8.18559431 6.30761336 -12 6 C-12.66 5.01 -13.32 4.02 -14 3 C-12.86111328 3.05220703 -12.86111328 3.05220703 -11.69921875 3.10546875 C-10.70535156 3.13253906 -9.71148438 3.15960938 -8.6875 3.1875 C-7.70136719 3.22230469 -6.71523438 3.25710938 -5.69921875 3.29296875 C-2.59203316 2.95571995 -1.965448 2.3041098 0 0 Z " fill="#9BC466" transform="translate(844,361)"/>
<path d="M0 0 C-1.90726751 1.20253816 -3.8262012 2.38658949 -5.75 3.5625 C-6.81734375 4.22378906 -7.8846875 4.88507813 -8.984375 5.56640625 C-12 7 -12 7 -14.390625 6.71484375 C-14.92171875 6.47894531 -15.4528125 6.24304688 -16 6 C-4.47603028 -1.49201009 -4.47603028 -1.49201009 0 0 Z " fill="#8A8A8A" transform="translate(585,243)"/>
<path d="M0 0 C1.17679972 3.43498297 0.81887767 5.56282473 -0.25 9 C-0.62898438 10.2684375 -0.62898438 10.2684375 -1.015625 11.5625 C-2.03290117 14.08146956 -3.27891452 15.91149178 -5 18 C-5 16.35 -5 14.7 -5 13 C-4.34 13 -3.68 13 -3 13 C-2.95101563 12.31292969 -2.90203125 11.62585938 -2.8515625 10.91796875 C-2.77679688 10.01691406 -2.70203125 9.11585938 -2.625 8.1875 C-2.52058594 6.84751953 -2.52058594 6.84751953 -2.4140625 5.48046875 C-2 3 -2 3 0 0 Z " fill="#A1A09E" transform="translate(459,497)"/>
<path d="M0 0 C-2.0762657 1.03513247 -4.16131479 2.05266211 -6.25 3.0625 C-7.41015625 3.63097656 -8.5703125 4.19945312 -9.765625 4.78515625 C-12.90644333 5.96485975 -13.99353048 6.30230734 -17 5 C-4.54150198 -1.51383399 -4.54150198 -1.51383399 0 0 Z " fill="#979797" transform="translate(716,546)"/>
<path d="M0 0 C0 0.33 0 0.66 0 1 C-1.670625 1.433125 -1.670625 1.433125 -3.375 1.875 C-7.00291092 2.69241329 -7.00291092 2.69241329 -9 5 C-9.39764263 6.98821313 -9.73775349 8.98944339 -10 11 C-10.33 11 -10.66 11 -11 11 C-11.35820896 3.71641791 -11.35820896 3.71641791 -10 1 C-6.72032242 -0.63983879 -3.62861311 -0.17845638 0 0 Z " fill="#432413" transform="translate(536,607)"/>
<path d="M0 0 C0.66 0.33 1.32 0.66 2 1 C-0.3125 3.5 -0.3125 3.5 -3 6 C-3.99 6 -4.98 6 -6 6 C-6 9.3 -6 12.6 -6 16 C-6.33 16 -6.66 16 -7 16 C-7.41382683 12.24928385 -7.62399396 8.73347646 -7 5 C-4.86362155 2.47275532 -2.99948478 1.55330462 0 0 Z " fill="#C06F32" transform="translate(555,343)"/>
<path d="M0 0 C0.33 0.99 0.66 1.98 1 3 C-1.31 5.31 -3.62 7.62 -6 10 C-6.66 9.67 -7.32 9.34 -8 9 C-6.85459775 7.68712379 -5.70866567 6.37470979 -4.5625 5.0625 C-3.92441406 4.33160156 -3.28632813 3.60070312 -2.62890625 2.84765625 C-1.77458541 1.87860647 -0.91348825 0.91348825 0 0 Z " fill="#B5652B" transform="translate(471,527)"/>
<path d="M0 0 C-3.87671106 2.67289025 -7.79267603 2.01875653 -12.25 1.625 C-12.99507812 1.56828125 -13.74015625 1.5115625 -14.5078125 1.453125 C-16.33935108 1.31223742 -18.16981352 1.15748116 -20 1 C-20 0.67 -20 0.34 -20 0 C-17.41703983 -0.19522373 -14.83395921 -0.38144403 -12.25 -0.5625 C-11.52039063 -0.61857422 -10.79078125 -0.67464844 -10.0390625 -0.73242188 C-6.45046349 -0.97709908 -3.44972775 -0.99666259 0 0 Z " fill="#955429" transform="translate(543,501)"/>
<path d="M0 0 C0.33 0.99 0.66 1.98 1 3 C0.319375 3.5878125 0.319375 3.5878125 -0.375 4.1875 C-2.16809237 5.96944965 -2.16809237 5.96944965 -3 8.625 C-3.33 9.40875 -3.66 10.1925 -4 11 C-4.99 11.33 -5.98 11.66 -7 12 C-6.67 10.68 -6.34 9.36 -6 8 C-5.34 8 -4.68 8 -4 8 C-3.8453125 7.13375 -3.8453125 7.13375 -3.6875 6.25 C-2.90207202 3.67950842 -1.69495803 2.06342716 0 0 Z " fill="#A55622" transform="translate(658,283)"/>
<path d="M0 0 C-0.639375 0.103125 -1.27875 0.20625 -1.9375 0.3125 C-2.618125 0.539375 -3.29875 0.76625 -4 1 C-4.33 1.99 -4.66 2.98 -5 4 C-7.06640625 4.73046875 -7.06640625 4.73046875 -9.5625 5.1875 C-10.38878906 5.34605469 -11.21507812 5.50460937 -12.06640625 5.66796875 C-13.02353516 5.83232422 -13.02353516 5.83232422 -14 6 C-11.72698066 3.45655714 -9.54913519 2.12383563 -6.4375 0.75 C-5.65246094 0.39421875 -4.86742187 0.0384375 -4.05859375 -0.328125 C-2 -1 -2 -1 0 0 Z " fill="#929091" transform="translate(230,266)"/>
<path d="M0 0 C0.33 0 0.66 0 1 0 C1.33 4.29 1.66 8.58 2 13 C-1.23739279 11.3813036 -2.42244771 8.15510457 -4 5 C-2.68 5 -1.36 5 0 5 C0 3.35 0 1.7 0 0 Z " fill="#CD7D44" transform="translate(574,665)"/>
<path d="M0 0 C1.73003446 5.95756226 0.08554599 11.29950762 -2 17 C-2.33 17 -2.66 17 -3 17 C-3.40214229 10.83381819 -1.96818336 5.82254243 0 0 Z " fill="#B0AFAD" transform="translate(140,365)"/>
<path d="M0 0 C1.37553268 3.82092412 0.81309902 7.08234111 0 11 C-0.99 11.495 -0.99 11.495 -2 12 C-3.6442351 7.06729471 -2.18615592 4.45975807 0 0 Z " fill="#C59C9C" transform="translate(590,755)"/>
<path d="M0 0 C0.92232422 0.10828125 0.92232422 0.10828125 1.86328125 0.21875 C3.07564453 0.35796875 3.07564453 0.35796875 4.3125 0.5 C5.51326172 0.63921875 5.51326172 0.63921875 6.73828125 0.78125 C9.11896555 1.04813463 9.11896555 1.04813463 12 1 C10.375 2.5625 10.375 2.5625 8 4 C4.98266875 3.7586135 2.70716958 3.35358479 0 2 C0 1.34 0 0.68 0 0 Z " fill="#A6A5A5" transform="translate(874,324)"/>
<path d="M0 0 C0.33 0 0.66 0 1 0 C1 2.31 1 4.62 1 7 C0.34 7 -0.32 7 -1 7 C-1 9.31 -1 11.62 -1 14 C-1.33 14 -1.66 14 -2 14 C-2.3690205 4.58997722 -2.3690205 4.58997722 0 0 Z " fill="#7C7877" transform="translate(466,463)"/>
<path d="M0 0 C1.485 0.99 1.485 0.99 3 2 C2.67 3.32 2.34 4.64 2 6 C1.67 5.34 1.34 4.68 1 4 C0.67 6.31 0.34 8.62 0 11 C-0.33 11 -0.66 11 -1 11 C-1.02688151 9.35425434 -1.04634123 7.70838587 -1.0625 6.0625 C-1.07410156 5.14597656 -1.08570313 4.22945313 -1.09765625 3.28515625 C-1 1 -1 1 0 0 Z " fill="#BEBDBF" transform="translate(722,326)"/>
<path d="M0 0 C0 0.66 0 1.32 0 2 C-7.42857143 4.42857143 -7.42857143 4.42857143 -11 3 C-4.5 0 -4.5 0 0 0 Z " fill="#7B7C7B" transform="translate(596,238)"/>
<path d="M0 0 C2.2344598 4.03292745 2.54496743 7.44967434 3 12 C0.89366282 10.29171079 0.06198392 9.47851584 -0.29296875 6.73828125 C-0.25816406 5.93777344 -0.22335937 5.13726563 -0.1875 4.3125 C-0.16042969 3.50425781 -0.13335937 2.69601562 -0.10546875 1.86328125 C-0.07066406 1.24839844 -0.03585937 0.63351562 0 0 Z " fill="#522C15" transform="translate(257,697)"/>
<path d="M0 0 C1.32 0.33 2.64 0.66 4 1 C3.67 1.66 3.34 2.32 3 3 C2.67 3 2.34 3 2 3 C1.67 5.97 1.34 8.94 1 12 C0.67 12 0.34 12 0 12 C0 8.04 0 4.08 0 0 Z " fill="#464244" transform="translate(720,324)"/>
<path d="M0 0 C0.66 0 1.32 0 2 0 C2 0.66 2 1.32 2 2 C3.65 2.33 5.3 2.66 7 3 C4.66119961 4.1694002 2.58134335 4.6127985 0 5 C-0.66 4.67 -1.32 4.34 -2 4 C-2 3.34 -2 2.68 -2 2 C-1.34 2 -0.68 2 0 2 C0 1.34 0 0.68 0 0 Z " fill="#F89340" transform="translate(547,647)"/>
<path d="M0 0 C2.79872437 2.52788007 4.45773019 4.20411134 5 8 C2 7 2 7 0 4 C0 2.68 0 1.36 0 0 Z " fill="#868685" transform="translate(592,293)"/>
<path d="M0 0 C0.66 0.33 1.32 0.66 2 1 C1.3125 2.9375 1.3125 2.9375 0 5 C-2.625 5.75 -2.625 5.75 -5 6 C-3.35 4.02 -1.7 2.04 0 0 Z " fill="#CBAB44" transform="translate(559,273)"/>
<path d="M0 0 C-0.33 0.99 -0.66 1.98 -1 3 C-3.95784231 4.22393475 -5.99727245 3.96516243 -9 3 C-3.375 0 -3.375 0 0 0 Z " fill="#AD632B" transform="translate(560,493)"/>
<path d="M0 0 C0.66 0.33 1.32 0.66 2 1 C1.67 1.66 1.34 2.32 1 3 C0.34 3 -0.32 3 -1 3 C-1.66 4.32 -2.32 5.64 -3 7 C-3.99 6.67 -4.98 6.34 -6 6 C-4.71034824 4.62437146 -3.37310707 3.29233607 -2 2 C-1.34 2 -0.68 2 0 2 C0 1.34 0 0.68 0 0 Z " fill="#A55420" transform="translate(200,300)"/>
<path d="M0 0 C2.97 0.495 2.97 0.495 6 1 C5.67 1.99 5.34 2.98 5 4 C3.35 4 1.7 4 0 4 C0 2.68 0 1.36 0 0 Z " fill="#99CE68" transform="translate(862,295)"/>
<path d="M0 0 C0.99 0 1.98 0 3 0 C3 0.66 3 1.32 3 2 C1 3.625 1 3.625 -1 5 C-0.67 3.35 -0.34 1.7 0 0 Z " fill="#EEEFEE" transform="translate(462,497)"/>
<path d="M0 0 C0.66 0 1.32 0 2 0 C1.67 0.66 1.34 1.32 1 2 C0.67 1.34 0.34 0.68 0 0 Z " fill="#EDEFEE" transform="translate(463,507)"/>
<path d="M0 0 C0.33 0.66 0.66 1.32 1 2 C0.34 1.67 -0.32 1.34 -1 1 C-0.67 0.67 -0.34 0.34 0 0 Z " fill="#EEEEEE" transform="translate(466,505)"/>
<path d="M0 0 C0.33 0.66 0.66 1.32 1 2 C0.34 1.67 -0.32 1.34 -1 1 C-0.67 0.67 -0.34 0.34 0 0 Z " fill="#EFEEEE" transform="translate(464,491)"/>
<path d="" fill="#EEEFEE" transform="translate(0,0)"/>
<path d="" fill="#EFF0EE" transform="translate(0,0)"/>
<path d="" fill="#EEEFF0" transform="translate(0,0)"/>
<path d="" fill="#ECECEC" transform="translate(0,0)"/>
<path d="" fill="#EFEFEE" transform="translate(0,0)"/>
<path d="" fill="#EEF2F0" transform="translate(0,0)"/>
<path d="" fill="#EFF1EE" transform="translate(0,0)"/>
<path d="" fill="#EEEFEF" transform="translate(0,0)"/>
<path d="" fill="#EEEFEE" transform="translate(0,0)"/>
</svg>
